<svg width="750" height="500" viewBox="0 0 750 500" fill="none" xmlns="http://www.w3.org/2000/svg">
<path d="M670.88 36.71L669.15 36.51C662.043 35.6106 654.825 36.6715 648.277 39.5779C641.729 42.4843 636.101 47.1257 632 53C630.948 54.5415 630.012 56.1593 629.2 57.84C626.322 63.993 625.008 70.7618 625.376 77.5448C625.744 84.3277 627.783 90.9147 631.31 96.72C635.52 103.54 641.86 109.46 643.31 117.3C645.19 127.51 638.19 136.91 631.61 144.84C625.03 152.77 618.06 162.23 620 172.43C621.21 178.82 625.84 184.15 631.2 187.89C645.41 197.78 665 197.76 680.46 190.39C695.92 183.02 707.55 169.21 715.17 153.91C725.85 132.47 729.31 106.91 721.7 83.91C714.09 60.91 694.58 41.54 670.88 36.71Z" fill="#F5F5F5"/>
<path d="M55.75 200.61L57.33 201.35C63.783 204.456 70.9621 205.739 78.0913 205.06C85.2205 204.381 92.0287 201.767 97.78 197.5C99.2716 196.375 100.676 195.138 101.98 193.8C106.667 188.881 110.066 182.88 111.876 176.331C113.685 169.782 113.848 162.887 112.35 156.26C110.53 148.47 106.4 140.83 107.53 132.94C108.99 122.66 118.62 115.94 127.39 110.55C136.16 105.16 145.77 98.41 147.19 88.13C148.08 81.69 145.38 75.13 141.49 69.91C131.16 56.02 112.59 49.8 95.58 51.91C78.57 54.02 63.17 63.33 51.07 75.42C34.07 92.34 22.7 115.52 22.62 139.67C22.54 163.82 34.82 188.49 55.75 200.61Z" fill="#F5F5F5"/>
<path d="M668.73 283.28C685.641 283.28 699.35 269.571 699.35 252.66C699.35 235.749 685.641 222.04 668.73 222.04C651.819 222.04 638.11 235.749 638.11 252.66C638.11 269.571 651.819 283.28 668.73 283.28Z" fill="#F5F5F5"/>
<path d="M703.33 347C703.33 347.14 554.93 347.26 371.92 347.26C188.91 347.26 40.48 347.13 40.48 347C40.48 346.87 188.84 346.74 371.92 346.74C555 346.74 703.33 346.85 703.33 347Z" fill="#263238"/>
<path d="M689.1 461.1C689.1 461.24 547.1 461.36 371.92 461.36C196.74 461.36 54.71 461.24 54.71 461.1C54.71 460.96 196.71 460.84 371.92 460.84C547.13 460.84 689.1 461 689.1 461.1Z" fill="#263238"/>
<path d="M592.82 46.99H178.47C170.423 46.99 163.9 53.5132 163.9 61.56V325.7C163.9 333.747 170.423 340.27 178.47 340.27H592.82C600.867 340.27 607.39 333.747 607.39 325.7V61.56C607.39 53.5132 600.867 46.99 592.82 46.99Z" fill="#E0E0E0"/>
<path d="M592.82 340.27L593.77 340.21C594.156 340.198 594.541 340.155 594.92 340.08C595.459 340.016 595.991 339.906 596.51 339.75C598.002 339.376 599.419 338.75 600.7 337.9C602.485 336.749 603.991 335.215 605.11 333.41C605.78 332.344 606.315 331.199 606.7 330C607.092 328.64 607.3 327.235 607.32 325.82C607.32 322.82 607.32 319.59 607.32 316.06C607.32 309.01 607.32 300.87 607.32 291.71C607.32 255.06 607.32 202.02 607.24 136.49C607.24 120.11 607.24 102.967 607.24 85.06V64.59C607.381 62.2997 607.202 60.0011 606.71 57.76C606.094 55.5218 604.944 53.4665 603.359 51.7701C601.774 50.0738 599.801 48.787 597.61 48.02C597.061 47.8252 596.5 47.6648 595.93 47.54C595.36 47.42 594.78 47.34 594.2 47.27C593.03 47.19 591.84 47.2 590.64 47.21H583.4H460.4H178.52C175.435 47.2144 172.434 48.2115 169.959 50.0538C167.485 51.8961 165.669 54.4858 164.78 57.44C164.36 58.9091 164.158 60.4321 164.18 61.96V112.67C164.18 137.023 164.18 160.997 164.18 184.59C164.18 231.75 164.18 277.23 164.18 320.59V324.59C164.142 325.93 164.243 327.27 164.48 328.59C165.033 331.186 166.289 333.579 168.11 335.51C169.013 336.467 170.047 337.292 171.18 337.96C171.741 338.295 172.322 338.596 172.92 338.86C173.526 339.107 174.147 339.314 174.78 339.48C177.3 340.22 179.97 339.94 182.61 339.99H273.56H380.75L535.95 340.08L578.15 340.13L535.95 340.18L380.75 340.26H273.56H213.84H178.61C177.259 340.268 175.914 340.093 174.61 339.74C173.958 339.566 173.316 339.352 172.69 339.1C172.073 338.821 171.472 338.507 170.89 338.16C169.722 337.472 168.657 336.62 167.73 335.63C166.79 334.646 165.992 333.535 165.36 332.33C164.734 331.115 164.266 329.824 163.97 328.49C163.728 327.144 163.624 325.777 163.66 324.41V320.41C163.66 277.08 163.66 231.6 163.66 184.41V62C163.631 60.421 163.84 58.8468 164.28 57.33C165.201 54.2685 167.083 51.5848 169.648 49.6758C172.212 47.7669 175.323 46.734 178.52 46.73H460.4H583.4H590.59C591.79 46.73 592.97 46.73 594.18 46.8C594.781 46.8599 595.378 46.95 595.97 47.07C598.597 47.6602 601.015 48.9509 602.968 50.8049C604.92 52.6589 606.335 55.007 607.06 57.6L607.28 58.45C607.34 58.74 607.37 59.03 607.42 59.32C607.513 59.899 607.566 60.4837 607.58 61.07C607.58 62.24 607.58 63.39 607.58 64.54V71.41C607.58 75.97 607.58 80.4866 607.58 84.96C607.58 102.847 607.58 119.99 607.58 136.39C607.58 201.92 607.51 254.96 607.49 291.61C607.49 300.77 607.49 308.91 607.49 315.96C607.49 319.49 607.49 322.75 607.49 325.72C607.469 327.149 607.253 328.569 606.85 329.94C606.466 331.162 605.925 332.328 605.24 333.41C604.109 335.228 602.585 336.769 600.78 337.92C599.491 338.764 598.067 339.383 596.57 339.75C596.047 339.901 595.511 340.008 594.97 340.07C594.587 340.14 594.199 340.176 593.81 340.18L592.82 340.27Z" fill="#263238"/>
<path d="M609.26 347H164.36C159.641 346.997 155.116 345.121 151.78 341.783C148.444 338.445 146.57 333.919 146.57 329.2V321.34H627.06V329.2C627.06 333.921 625.185 338.448 621.846 341.786C618.508 345.125 613.981 347 609.26 347Z" fill="#E0E0E0"/>
<path d="M609.26 347H609.84C610.412 346.979 610.983 346.929 611.55 346.85L612.82 346.65L614.33 346.26C614.88 346.1 615.44 345.86 616.06 345.64C616.68 345.42 617.31 345.07 617.96 344.7C619.426 343.863 620.772 342.83 621.96 341.63C625.082 338.405 626.868 334.118 626.96 329.63C626.96 327.06 626.96 324.3 626.96 321.37L627.06 321.46L164.39 321.63H146.57L146.83 321.37V327.62C146.726 329.678 146.929 331.741 147.43 333.74C148.486 337.718 150.912 341.195 154.28 343.56C157.642 345.888 161.688 347.018 165.77 346.77H316.44L469.16 346.83L571.74 346.91L599.57 346.96H571.74L469.16 347.04L316.44 347.1H165.77C161.611 347.403 157.47 346.313 154 344C150.55 341.554 148.072 337.971 147 333.88C146.49 331.838 146.281 329.732 146.38 327.63V321.12H164.46L627.13 321.28H627.22V321.38C627.22 324.31 627.22 327.06 627.22 329.65C627.068 334.171 625.202 338.465 622 341.66C620.811 342.861 619.465 343.897 618 344.74C617.34 345.11 616.69 345.39 616.09 345.67C615.49 345.95 614.89 346.13 614.34 346.28L612.82 346.66L611.55 346.85C610.98 346.928 610.405 346.968 609.83 346.97L609.26 347Z" fill="#263238"/>
<path d="M341.93 321.33L347.89 330.81H431.79L437.32 321.33H341.93Z" fill="#263238"/>
<path d="M578.01 67.03H192.9C188.217 67.03 184.42 70.8267 184.42 75.51V297.04C184.42 301.723 188.217 305.52 192.9 305.52H578.01C582.693 305.52 586.49 301.723 586.49 297.04V75.51C586.49 70.8267 582.693 67.03 578.01 67.03Z" fill="#455A64"/>
<path d="M577.83 305.52C578.92 305.498 579.997 305.281 581.01 304.88C582.258 304.383 583.372 303.598 584.26 302.59C585.491 301.196 586.241 299.443 586.4 297.59C586.46 289.17 586.4 276.72 586.4 260.7C586.4 228.7 586.4 182.3 586.31 125.02C586.31 110.7 586.31 95.7 586.31 80.02V77.12C586.354 76.1478 586.308 75.1735 586.17 74.21C585.83 72.2841 584.83 70.5371 583.34 69.27C581.835 68.0026 579.937 67.2959 577.97 67.27H547.06H439.52H193.11C191.783 67.2707 190.474 67.5844 189.291 68.1855C188.108 68.7867 187.083 69.6585 186.3 70.73C185.513 71.797 184.999 73.0394 184.8 74.35C184.68 75.6798 184.64 77.0155 184.68 78.35V189.67C184.68 210.283 184.68 230.513 184.68 250.36V279.78C184.68 284.62 184.68 289.45 184.68 294.24C184.68 295.43 184.68 296.66 184.74 297.8C184.934 299.537 185.664 301.17 186.829 302.473C187.994 303.776 189.536 304.684 191.24 305.07C192.388 305.271 193.556 305.342 194.72 305.28H298.72H392.42L528.1 305.36L564.99 305.41L528.1 305.46L392.42 305.54H298.72H194.72C193.522 305.602 192.32 305.525 191.14 305.31C189.339 304.901 187.709 303.942 186.476 302.566C185.244 301.19 184.469 299.465 184.26 297.63C184.15 296.39 184.26 295.22 184.2 294.02V279.78C184.2 270.08 184.2 260.273 184.2 250.36V189.67C184.2 169.063 184.2 148.107 184.2 126.8V78.4C184.156 77.0289 184.196 75.6563 184.32 74.29C184.533 72.8958 185.082 71.5743 185.92 70.44C186.75 69.3012 187.838 68.375 189.095 67.7372C190.351 67.0993 191.741 66.7679 193.15 66.77H439.56H547.1H578C580.06 66.7987 582.045 67.5443 583.615 68.8784C585.184 70.2125 586.24 72.0518 586.6 74.08C586.737 75.0738 586.784 76.0779 586.74 77.08V80.02C586.74 95.6467 586.74 110.647 586.74 125.02C586.74 182.3 586.68 228.66 586.66 260.7C586.66 276.7 586.66 289.16 586.57 297.6C586.43 299.21 585.844 300.748 584.877 302.043C583.911 303.338 582.603 304.337 581.1 304.93C580.337 305.227 579.536 305.416 578.72 305.49L577.83 305.52Z" fill="#263238"/>
<path d="M333.5 126.06V128.35H324V116H333.32V118.29H326.84V121H332.56V123.22H326.84V126.07L333.5 126.06Z" fill="white"/>
<path d="M345.26 122.93V128.35H342.51V123.35C342.51 121.82 341.81 121.11 340.59 121.11C339.37 121.11 338.32 121.92 338.32 123.66V128.35H335.58V118.88H338.2V120C338.605 119.584 339.093 119.258 339.632 119.043C340.172 118.828 340.75 118.728 341.33 118.75C343.57 118.73 345.26 120 345.26 122.93Z" fill="white"/>
<path d="M353.85 127.89C353.185 128.312 352.407 128.522 351.62 128.49C349.38 128.49 348.08 127.35 348.08 125.09V121.2H346.62V119.09H348.08V116.78H350.82V119.09H353.18V121.2H350.82V125.06C350.799 125.224 350.814 125.391 350.865 125.548C350.917 125.705 351.003 125.849 351.117 125.969C351.231 126.089 351.37 126.182 351.525 126.241C351.679 126.3 351.845 126.323 352.01 126.31C352.406 126.312 352.792 126.186 353.11 125.95L353.85 127.89Z" fill="white"/>
<path d="M364.33 124.39H357.17C357.316 124.98 357.671 125.498 358.169 125.847C358.667 126.196 359.275 126.354 359.88 126.29C360.317 126.307 360.753 126.235 361.161 126.076C361.568 125.918 361.939 125.678 362.25 125.37L363.72 126.96C363.218 127.483 362.609 127.891 361.933 128.155C361.258 128.419 360.534 128.534 359.81 128.49C356.53 128.49 354.4 126.43 354.4 123.61C354.393 122.953 354.519 122.301 354.773 121.694C355.026 121.087 355.401 120.539 355.873 120.082C356.346 119.625 356.907 119.269 357.522 119.037C358.137 118.804 358.793 118.7 359.45 118.73C360.106 118.696 360.761 118.799 361.374 119.034C361.987 119.269 362.544 119.63 363.009 120.094C363.474 120.558 363.836 121.114 364.072 121.726C364.308 122.339 364.413 122.994 364.38 123.65C364.38 123.86 364.35 124.16 364.33 124.39ZM357.13 122.78H361.8C361.733 122.215 361.456 121.697 361.025 121.326C360.593 120.956 360.038 120.761 359.47 120.78C358.898 120.751 358.337 120.942 357.902 121.314C357.467 121.686 357.191 122.211 357.13 122.78Z" fill="white"/>
<path d="M372.1 118.73V121.27C371.87 121.27 371.69 121.27 371.48 121.27C371.131 121.238 370.778 121.285 370.45 121.409C370.121 121.532 369.825 121.728 369.583 121.981C369.34 122.235 369.158 122.541 369.051 122.874C368.943 123.208 368.912 123.562 368.96 123.91V128.38H366.22V118.91H368.84V120.16C369.227 119.675 369.725 119.291 370.293 119.042C370.861 118.793 371.481 118.686 372.1 118.73Z" fill="white"/>
<path d="M384.9 124V128.37H382.05V124L377.28 116H380.28L383.58 121.48L386.87 116H389.67L384.9 124Z" fill="white"/>
<path d="M388.93 123.61C388.862 122.566 389.109 121.525 389.64 120.623C390.17 119.721 390.96 119 391.906 118.552C392.851 118.104 393.91 117.951 394.944 118.112C395.978 118.274 396.939 118.742 397.704 119.457C398.468 120.171 399 121.099 399.231 122.12C399.461 123.141 399.38 124.207 398.997 125.181C398.613 126.155 397.947 126.991 397.082 127.581C396.218 128.171 395.196 128.488 394.15 128.49C393.481 128.537 392.81 128.445 392.178 128.221C391.546 127.997 390.967 127.645 390.477 127.187C389.988 126.729 389.597 126.175 389.331 125.56C389.065 124.944 388.928 124.281 388.93 123.61ZM396.56 123.61C396.521 123.139 396.346 122.69 396.055 122.317C395.765 121.944 395.372 121.664 394.925 121.511C394.478 121.358 393.996 121.339 393.538 121.455C393.08 121.572 392.666 121.82 392.347 122.168C392.027 122.517 391.817 122.951 391.74 123.417C391.664 123.883 391.725 124.362 391.916 124.794C392.108 125.226 392.421 125.593 392.818 125.85C393.214 126.107 393.677 126.242 394.15 126.24C394.487 126.245 394.821 126.178 395.13 126.044C395.439 125.911 395.717 125.713 395.944 125.465C396.172 125.217 396.344 124.923 396.45 124.603C396.557 124.284 396.594 123.945 396.56 123.61Z" fill="white"/>
<path d="M410.72 118.88V128.35H408.11V127.22C407.741 127.631 407.287 127.958 406.779 128.177C406.272 128.396 405.723 128.503 405.17 128.49C402.79 128.49 401.12 127.15 401.12 124.23V118.88H403.87V123.82C403.87 125.41 404.57 126.11 405.79 126.11C407.01 126.11 407.97 125.3 407.97 123.56V118.88H410.72Z" fill="white"/>
<path d="M419.15 118.73V121.27C418.92 121.27 418.75 121.27 418.54 121.27C418.19 121.236 417.837 121.282 417.508 121.405C417.178 121.527 416.881 121.723 416.638 121.977C416.395 122.231 416.214 122.538 416.107 122.872C415.999 123.207 415.97 123.562 416.02 123.91V128.38H413.27V118.91H415.89V120.16C416.277 119.675 416.775 119.291 417.343 119.042C417.911 118.793 418.531 118.686 419.15 118.73Z" fill="white"/>
<path d="M425.26 122.19C425.26 118.52 428.11 115.81 432.01 115.81C435.91 115.81 438.75 118.51 438.75 122.19C438.75 125.87 435.88 128.56 432.01 128.56C428.14 128.56 425.26 125.85 425.26 122.19ZM435.86 122.19C435.844 121.43 435.604 120.691 435.17 120.067C434.736 119.442 434.127 118.96 433.42 118.68C432.713 118.401 431.939 118.336 431.195 118.495C430.452 118.654 429.772 119.028 429.24 119.572C428.709 120.116 428.35 120.805 428.208 121.552C428.067 122.299 428.149 123.071 428.445 123.772C428.741 124.472 429.237 125.07 429.871 125.489C430.506 125.909 431.25 126.132 432.01 126.13C432.527 126.143 433.041 126.049 433.52 125.855C433.999 125.66 434.432 125.369 434.794 124.999C435.155 124.629 435.436 124.189 435.62 123.706C435.803 123.222 435.885 122.706 435.86 122.19Z" fill="white"/>
<path d="M443.28 118.35H439.33V116H450.07V118.33H446.13V128.33H443.28V118.35Z" fill="white"/>
<path d="M462.3 120.5C462.3 123.24 460.24 124.95 456.94 124.95H454.46V128.35H451.61V116H456.94C460.24 116 462.3 117.73 462.3 120.5ZM459.41 120.5C459.41 119.14 458.53 118.35 456.78 118.35H454.46V122.63H456.78C458.53 122.63 459.41 121.83 459.41 120.5Z" fill="white"/>
<g opacity="0.2">
<path d="M303.76 153.78H283.41C280.389 153.78 277.94 156.229 277.94 159.25V190.94C277.94 193.961 280.389 196.41 283.41 196.41H303.76C306.781 196.41 309.23 193.961 309.23 190.94V159.25C309.23 156.229 306.781 153.78 303.76 153.78Z" fill="white"/>
</g>
<g opacity="0.2">
<path d="M343.13 153.78H322.78C319.759 153.78 317.31 156.229 317.31 159.25V190.94C317.31 193.961 319.759 196.41 322.78 196.41H343.13C346.151 196.41 348.6 193.961 348.6 190.94V159.25C348.6 156.229 346.151 153.78 343.13 153.78Z" fill="white"/>
</g>
<g opacity="0.2">
<path d="M382.51 153.78H362.16C359.139 153.78 356.69 156.229 356.69 159.25V190.94C356.69 193.961 359.139 196.41 362.16 196.41H382.51C385.531 196.41 387.98 193.961 387.98 190.94V159.25C387.98 156.229 385.531 153.78 382.51 153.78Z" fill="white"/>
</g>
<g opacity="0.2">
<path d="M421.88 153.78H401.53C398.509 153.78 396.06 156.229 396.06 159.25V190.94C396.06 193.961 398.509 196.41 401.53 196.41H421.88C424.901 196.41 427.35 193.961 427.35 190.94V159.25C427.35 156.229 424.901 153.78 421.88 153.78Z" fill="white"/>
</g>
<g opacity="0.2">
<path d="M461.25 153.78H440.9C437.879 153.78 435.43 156.229 435.43 159.25V190.94C435.43 193.961 437.879 196.41 440.9 196.41H461.25C464.271 196.41 466.72 193.961 466.72 190.94V159.25C466.72 156.229 464.271 153.78 461.25 153.78Z" fill="white"/>
</g>
<g opacity="0.2">
<path d="M500.62 153.78H480.27C477.249 153.78 474.8 156.229 474.8 159.25V190.94C474.8 193.961 477.249 196.41 480.27 196.41H500.62C503.641 196.41 506.09 193.961 506.09 190.94V159.25C506.09 156.229 503.641 153.78 500.62 153.78Z" fill="white"/>
</g>
<path d="M296.85 175.27L300.6 177.27L298.92 180.09L295.14 177.85L295.2 182.01H292V177.82L288.22 180.09L286.57 177.27L290.31 175.27L286.57 173.21L288.22 170.39L292 172.66V168.47H295.23L295.17 172.66L298.95 170.39L300.63 173.21L296.85 175.27Z" fill="#263238"/>
<path d="M428.23 222.58H355.81C348.614 222.58 342.78 228.414 342.78 235.61V238.26C342.78 245.456 348.614 251.29 355.81 251.29H428.23C435.426 251.29 441.26 245.456 441.26 238.26V235.61C441.26 228.414 435.426 222.58 428.23 222.58Z" fill="#FFA62F"/>
<path d="M364.5 236.26C364.554 235.389 364.862 234.553 365.386 233.855C365.911 233.157 366.628 232.629 367.45 232.335C368.272 232.041 369.162 231.995 370.01 232.202C370.858 232.409 371.626 232.86 372.22 233.5L371.02 234.61C370.776 234.317 370.47 234.08 370.124 233.918C369.779 233.755 369.402 233.671 369.02 233.67C368.333 233.67 367.674 233.943 367.189 234.429C366.703 234.914 366.43 235.573 366.43 236.26C366.43 236.947 366.703 237.606 367.189 238.091C367.674 238.577 368.333 238.85 369.02 238.85C369.407 238.843 369.787 238.749 370.133 238.576C370.479 238.403 370.782 238.155 371.02 237.85L372.22 238.96C371.629 239.603 370.862 240.059 370.015 240.269C369.167 240.48 368.276 240.436 367.453 240.144C366.63 239.852 365.911 239.324 365.386 238.627C364.861 237.929 364.553 237.092 364.5 236.22V236.26Z" fill="white"/>
<path d="M372.67 237.19C372.626 236.504 372.789 235.821 373.138 235.228C373.487 234.636 374.006 234.162 374.628 233.869C375.249 233.575 375.945 233.475 376.624 233.581C377.303 233.688 377.935 233.996 378.437 234.466C378.939 234.935 379.288 235.545 379.439 236.216C379.59 236.886 379.536 237.587 379.284 238.227C379.033 238.866 378.594 239.416 378.026 239.803C377.459 240.191 376.787 240.399 376.1 240.4C375.66 240.43 375.219 240.37 374.804 240.222C374.389 240.074 374.008 239.842 373.687 239.541C373.365 239.24 373.109 238.876 372.934 238.471C372.759 238.067 372.669 237.631 372.67 237.19ZM377.67 237.19C377.645 236.88 377.529 236.583 377.338 236.337C377.147 236.092 376.888 235.907 376.593 235.806C376.298 235.705 375.98 235.693 375.678 235.77C375.377 235.847 375.104 236.011 374.894 236.241C374.684 236.471 374.545 236.758 374.496 237.065C374.446 237.373 374.487 237.688 374.614 237.972C374.741 238.257 374.949 238.498 375.211 238.666C375.473 238.835 375.778 238.923 376.09 238.92C376.312 238.924 376.532 238.881 376.737 238.793C376.941 238.706 377.124 238.576 377.274 238.413C377.424 238.249 377.538 238.056 377.608 237.845C377.678 237.634 377.703 237.411 377.68 237.19H377.67Z" fill="white"/>
<path d="M387.07 236.74V240.3H385.27V237C385.27 236 384.8 235.53 384.01 235.53C383.22 235.53 382.51 236.06 382.51 237.21V240.28H380.71V234.06H382.43V234.79C382.698 234.518 383.019 234.304 383.374 234.163C383.728 234.022 384.109 233.956 384.49 233.97C384.852 233.946 385.214 234.002 385.551 234.136C385.889 234.269 386.192 234.476 386.439 234.741C386.686 235.007 386.871 235.324 386.98 235.669C387.089 236.015 387.12 236.381 387.07 236.74Z" fill="white"/>
<path d="M392.71 240C392.272 240.281 391.759 240.42 391.24 240.4C390.932 240.442 390.619 240.415 390.324 240.318C390.028 240.222 389.759 240.06 389.535 239.844C389.312 239.628 389.14 239.365 389.034 239.073C388.927 238.781 388.888 238.469 388.92 238.16V235.61H387.92V234.22H388.92V232.71H390.72V234.22H392.27V235.61H390.72V238.14C390.706 238.247 390.717 238.357 390.751 238.46C390.784 238.563 390.841 238.657 390.915 238.735C390.99 238.814 391.081 238.875 391.182 238.913C391.283 238.952 391.392 238.968 391.5 238.96C391.762 238.962 392.017 238.882 392.23 238.73L392.71 240Z" fill="white"/>
<path d="M393.51 232.21C393.509 232.068 393.538 231.927 393.596 231.797C393.653 231.668 393.738 231.551 393.844 231.457C393.95 231.362 394.075 231.291 394.21 231.249C394.346 231.206 394.489 231.193 394.63 231.21C394.771 231.193 394.914 231.206 395.05 231.249C395.185 231.291 395.31 231.362 395.416 231.457C395.522 231.551 395.607 231.668 395.664 231.797C395.722 231.927 395.751 232.068 395.75 232.21C395.714 232.481 395.58 232.73 395.374 232.91C395.168 233.091 394.904 233.19 394.63 233.19C394.356 233.19 394.092 233.091 393.886 232.91C393.68 232.73 393.546 232.481 393.51 232.21ZM393.73 234.08H395.53V240.3H393.73V234.08Z" fill="white"/>
<path d="M403.57 236.74V240.3H401.77V237C401.77 236 401.3 235.53 400.51 235.53C399.72 235.53 399.01 236.06 399.01 237.21V240.28H397.21V234.06H398.93V234.79C399.201 234.522 399.526 234.313 399.882 234.177C400.238 234.041 400.619 233.981 401 234C401.358 233.978 401.717 234.035 402.05 234.168C402.383 234.3 402.683 234.504 402.929 234.766C403.174 235.028 403.359 235.34 403.47 235.681C403.581 236.023 403.615 236.384 403.57 236.74Z" fill="white"/>
<path d="M411.47 234.08V240.3H409.76V239.56C409.518 239.831 409.221 240.047 408.887 240.192C408.554 240.337 408.193 240.408 407.83 240.4C407.461 240.43 407.09 240.377 406.743 240.245C406.397 240.113 406.085 239.905 405.83 239.636C405.575 239.368 405.383 239.045 405.269 238.693C405.155 238.341 405.121 237.967 405.17 237.6V234.08H407V237.33C407 238.33 407.46 238.84 408.26 238.84C409.06 238.84 409.7 238.3 409.7 237.16V234.08H411.47Z" fill="white"/>
<path d="M419.21 237.7H414.5C414.595 238.089 414.827 238.43 415.155 238.66C415.482 238.89 415.882 238.993 416.28 238.95C416.567 238.96 416.853 238.912 417.121 238.809C417.389 238.706 417.634 238.55 417.84 238.35L418.84 239.35C418.352 239.818 417.744 240.141 417.083 240.282C416.421 240.423 415.734 240.376 415.098 240.148C414.462 239.919 413.902 239.517 413.482 238.988C413.062 238.458 412.798 237.821 412.72 237.15C412.722 236.726 412.81 236.307 412.977 235.917C413.145 235.527 413.388 235.175 413.694 234.882C414 234.588 414.362 234.359 414.758 234.207C415.154 234.056 415.576 233.985 416 234C416.431 233.977 416.861 234.045 417.264 234.199C417.667 234.353 418.033 234.59 418.338 234.894C418.644 235.199 418.882 235.564 419.037 235.966C419.193 236.369 419.262 236.799 419.24 237.23C419.24 237.36 419.22 237.55 419.21 237.7ZM414.48 236.7H417.54C417.495 236.331 417.313 235.992 417.029 235.751C416.746 235.51 416.382 235.385 416.01 235.4C415.645 235.379 415.285 235.495 415.001 235.727C414.718 235.958 414.532 236.288 414.48 236.65V236.7Z" fill="white"/>
<path d="M394.48 57.0999C394.48 57.9746 394.221 58.8295 393.734 59.5566C393.248 60.2837 392.557 60.8502 391.749 61.1844C390.941 61.5187 390.052 61.6056 389.194 61.4343C388.336 61.2629 387.549 60.841 386.931 60.2218C386.313 59.6027 385.893 58.8142 385.724 57.9561C385.554 57.098 385.643 56.209 385.979 55.4015C386.315 54.5941 386.883 53.9045 387.612 53.42C388.34 52.9355 389.195 52.678 390.07 52.6799C390.65 52.6799 391.224 52.7943 391.76 53.0166C392.296 53.2388 392.782 53.5646 393.192 53.9751C393.602 54.3857 393.926 54.873 394.147 55.4092C394.368 55.9454 394.481 56.52 394.48 57.0999Z" fill="#263238"/>
<path d="M556.69 81.44V77.2C556.685 77.0858 556.702 76.9715 556.741 76.8639C556.779 76.7563 556.839 76.6574 556.916 76.5729C556.993 76.4884 557.086 76.4199 557.19 76.3713C557.294 76.3228 557.406 76.2952 557.52 76.29H563.89C564.004 76.2952 564.116 76.3228 564.22 76.3713C564.324 76.4199 564.417 76.4884 564.494 76.5729C564.571 76.6574 564.63 76.7563 564.669 76.8639C564.708 76.9715 564.725 77.0858 564.72 77.2V81.44C564.725 81.5543 564.708 81.6685 564.669 81.7761C564.63 81.8838 564.571 81.9827 564.494 82.0672C564.417 82.1517 564.324 82.2202 564.22 82.2687C564.116 82.3173 564.004 82.3449 563.89 82.35H557.52C557.406 82.3449 557.294 82.3173 557.19 82.2687C557.086 82.2202 556.993 82.1517 556.916 82.0672C556.839 81.9827 556.779 81.8838 556.741 81.7761C556.702 81.6685 556.685 81.5543 556.69 81.44Z" fill="#263238"/>
<path d="M568.77 83.79H556.19C555.892 83.7873 555.607 83.6671 555.397 83.4555C555.188 83.2439 555.07 82.958 555.07 82.66V75.73C555.07 75.5829 555.099 75.4373 555.155 75.3014C555.212 75.1655 555.294 75.042 555.398 74.938C555.502 74.834 555.626 74.7515 555.761 74.6952C555.897 74.639 556.043 74.61 556.19 74.61H568.59C568.855 74.61 569.11 74.7153 569.297 74.9029C569.485 75.0904 569.59 75.3448 569.59 75.61V76.89C569.59 76.9324 569.607 76.9731 569.637 77.0031C569.667 77.0331 569.708 77.05 569.75 77.05H571.11C571.288 77.05 571.458 77.1206 571.584 77.2462C571.709 77.3719 571.78 77.5423 571.78 77.72V80C571.78 80.2201 571.693 80.4312 571.537 80.5869C571.381 80.7425 571.17 80.83 570.95 80.83H569.95C569.905 80.83 569.862 80.8479 569.83 80.8798C569.798 80.9117 569.78 80.9549 569.78 81V82.77C569.783 82.9038 569.758 83.0368 569.709 83.1611C569.659 83.2855 569.585 83.3985 569.491 83.4937C569.397 83.5888 569.284 83.664 569.16 83.7149C569.037 83.7658 568.904 83.7914 568.77 83.79ZM556.19 75.11C556.026 75.11 555.868 75.1753 555.752 75.2916C555.635 75.4079 555.57 75.5656 555.57 75.73V82.66C555.57 82.8254 555.635 82.9841 555.751 83.102C555.867 83.2198 556.025 83.2874 556.19 83.29H568.77C568.909 83.2874 569.041 83.2304 569.138 83.1313C569.236 83.0321 569.29 82.8988 569.29 82.76V81C569.29 80.8223 569.361 80.6519 569.486 80.5262C569.612 80.4006 569.782 80.33 569.96 80.33H570.96C571.048 80.33 571.131 80.2952 571.193 80.2333C571.255 80.1714 571.29 80.0875 571.29 80V77.74C571.288 77.6957 571.269 77.6538 571.238 77.6224C571.206 77.5911 571.164 77.5724 571.12 77.57H569.76C569.586 77.5674 569.419 77.497 569.296 77.3738C569.173 77.2506 569.103 77.0842 569.1 76.91V75.63C569.1 75.5608 569.086 75.4924 569.06 75.4286C569.033 75.3649 568.994 75.3071 568.944 75.2587C568.895 75.2103 568.836 75.1722 568.772 75.1467C568.708 75.1211 568.639 75.1087 568.57 75.11H556.19Z" fill="#263238"/>
<path d="M172.67 201.81C172.131 200.199 171.116 198.79 169.759 197.769C168.402 196.748 166.767 196.162 165.07 196.09C165.95 193.62 164.26 190.77 161.86 189.73C160.629 189.285 159.317 189.104 158.011 189.198C156.706 189.293 155.434 189.662 154.28 190.28C152.61 191.07 151.05 192.17 149.28 192.58C146.91 193.12 144.46 192.37 142.04 192.29C139.556 192.243 137.108 192.879 134.961 194.13C132.815 195.38 131.054 197.196 129.87 199.38C129.06 200.91 128.56 202.6 127.67 204.09C126.95 205.28 126.01 206.32 125.3 207.52C124.309 209.277 123.858 211.287 124.004 213.299C124.149 215.311 124.886 217.235 126.12 218.83L160.21 211C161.611 211.969 163.28 212.477 164.983 212.452C166.687 212.427 168.34 211.87 169.712 210.861C171.084 209.851 172.106 208.438 172.637 206.819C173.167 205.2 173.179 203.456 172.67 201.83V201.81Z" fill="#263238"/>
<path d="M251.2 327.33L218.33 324.07L216.43 341.14L253.55 339.85L251.2 327.33Z" fill="#FFBF9D"/>
<path d="M276.17 337.33C275.961 337.626 275.669 337.854 275.331 337.985C274.993 338.117 274.624 338.146 274.27 338.07C274.118 338.029 273.97 337.972 273.83 337.9C272.83 337.41 273.28 335.32 273.28 335.32L268.46 333.74C268.46 333.74 261.38 336.86 258.66 339.25C255.94 341.64 250.46 338.49 250.46 338.49L250.1 327.63L260.5 320.84C260.5 320.84 259.86 321.25 260.73 319.84C261.6 318.43 264.37 319.43 264.37 319.43C264.94 318.74 266.85 318.76 266.85 318.76L274.68 320.94C275.478 321.161 276.216 321.56 276.839 322.105C277.462 322.65 277.955 323.329 278.28 324.09L280.81 329.96C280.81 329.96 281.99 334.09 281.56 334.96C281.378 335.31 281.073 335.58 280.704 335.72C280.336 335.86 279.929 335.86 279.56 335.72C279.56 335.72 278.76 338.18 278.09 338.17C277.413 338.027 276.769 337.759 276.19 337.38L276.17 337.33Z" fill="#FFBF9D"/>
<path d="M260.67 337.83C260.858 337.75 261.039 337.653 261.21 337.54L262.71 336.68C264.594 335.637 266.537 334.705 268.53 333.89H268.41L273.22 335.51L273.08 335.27C273.006 335.676 272.972 336.088 272.98 336.5C272.976 336.951 273.104 337.392 273.35 337.77C273.509 337.963 273.721 338.106 273.96 338.18C274.178 338.276 274.412 338.327 274.65 338.33C275.141 338.331 275.616 338.157 275.99 337.84C276.084 337.761 276.171 337.674 276.25 337.58L276.31 337.51L276 337.57L276.15 337.66C276.343 337.782 276.544 337.892 276.75 337.99C276.96 338.096 277.177 338.187 277.4 338.26C277.516 338.305 277.637 338.339 277.76 338.36C277.913 338.405 278.077 338.405 278.23 338.36C278.475 338.223 278.679 338.023 278.82 337.78C278.95 337.574 279.067 337.361 279.17 337.14C279.377 336.701 279.557 336.25 279.71 335.79L279.39 335.94C279.713 336.067 280.064 336.104 280.406 336.046C280.748 335.988 281.068 335.837 281.33 335.61C281.601 335.365 281.778 335.032 281.83 334.67C281.866 334.338 281.866 334.002 281.83 333.67C281.653 332.396 281.386 331.136 281.03 329.9L279.68 326.77L278.83 324.77C278.568 324.086 278.233 323.432 277.83 322.82C277.403 322.226 276.858 321.725 276.23 321.35C275.605 321.004 274.93 320.754 274.23 320.61L266.84 318.61H266.78C266.32 318.616 265.862 318.662 265.41 318.75C264.928 318.814 264.479 319.032 264.13 319.37H264.42C264.044 319.12 263.612 318.965 263.162 318.92C262.713 318.874 262.259 318.94 261.84 319.11C261.096 319.49 260.526 320.142 260.25 320.93L260.33 320.83L253.16 325.48L251.23 326.77C250.999 326.914 250.778 327.074 250.57 327.25C250.822 327.144 251.063 327.013 251.29 326.86L253.29 325.66L260.54 321.16V321.1C260.787 320.417 261.284 319.853 261.93 319.52C262.287 319.384 262.671 319.335 263.051 319.379C263.43 319.422 263.793 319.557 264.11 319.77L264.27 319.87L264.4 319.73C264.681 319.481 265.029 319.321 265.4 319.27C265.818 319.189 266.244 319.149 266.67 319.15L274.04 321.23C274.688 321.366 275.311 321.599 275.89 321.92C276.457 322.264 276.947 322.72 277.33 323.26C277.706 323.84 278.014 324.461 278.25 325.11C278.54 325.77 278.82 326.43 279.11 327.11L280.46 330.24C280.811 331.45 281.075 332.683 281.25 333.93C281.279 334.219 281.279 334.511 281.25 334.8C281.215 335.046 281.094 335.273 280.91 335.44C280.715 335.604 280.479 335.713 280.228 335.755C279.976 335.797 279.718 335.771 279.48 335.68L279.24 335.6L279.16 335.83C279.021 336.272 278.851 336.703 278.65 337.12C278.51 337.505 278.277 337.849 277.97 338.12C277.9 338.129 277.83 338.129 277.76 338.12L277.47 338.04C277.27 337.97 277.07 337.88 276.87 337.79C276.675 337.697 276.485 337.593 276.3 337.48L276.16 337.4L275.85 337.46V337.52C275.785 337.592 275.715 337.659 275.64 337.72C275.361 337.961 275.008 338.098 274.64 338.11C274.455 338.109 274.271 338.072 274.1 338C273.933 337.961 273.785 337.865 273.68 337.73C273.35 337.067 273.272 336.307 273.46 335.59V335.4L273.29 335.35L268.47 333.79H268.41H268.35C266.359 334.639 264.428 335.621 262.57 336.73C261.92 337.12 261.43 337.44 261.1 337.67C260.953 337.713 260.809 337.767 260.67 337.83Z" fill="#FF9A6C"/>
<path d="M265.28 322.43C266.038 322.925 266.858 323.315 267.72 323.59C269.814 324.379 272.003 324.89 274.23 325.11L273.99 324.89C274.07 325.31 274.14 325.74 274.25 326.18C274.818 328.661 275.856 331.011 277.31 333.1C277.748 333.726 278.229 334.321 278.75 334.88C279.12 335.28 279.35 335.47 279.38 335.45C279.41 335.43 278.64 334.5 277.62 332.89C276.293 330.79 275.329 328.481 274.77 326.06C274.67 325.64 274.59 325.21 274.52 324.81V324.6H274.32C272.132 324.386 269.973 323.94 267.88 323.27C267.03 322.94 266.162 322.66 265.28 322.43Z" fill="#FF9A6C"/>
<path d="M272.12 328.27C272.348 331.625 273.868 334.762 276.36 337.02C276.49 336.91 275.03 335.25 273.87 332.83C272.71 330.41 272.28 328.24 272.12 328.27Z" fill="#FF9A6C"/>
<path d="M249.39 335C249.39 335 249.46 335.08 249.62 335.19C249.858 335.348 250.105 335.492 250.36 335.62C251.329 336.093 252.376 336.384 253.45 336.48C255.099 336.63 256.757 336.307 258.23 335.55C260.109 334.588 261.596 333.005 262.44 331.07L262.12 331.22C263.964 331.884 265.894 332.281 267.85 332.4C268.576 332.44 269.304 332.44 270.03 332.4C270.758 332.402 271.481 332.283 272.17 332.05C272.555 331.921 272.879 331.654 273.08 331.3C273.165 331.118 273.213 330.921 273.221 330.72C273.23 330.519 273.199 330.319 273.13 330.13C272.988 329.757 272.704 329.454 272.34 329.29L271.46 328.91C269.13 327.91 266.98 327.18 265.17 326.59C263.36 326 261.86 325.59 260.83 325.33C260.3 325.163 259.753 325.052 259.2 325C259.712 325.208 260.236 325.385 260.77 325.53C261.77 325.85 263.25 326.32 265.05 326.95C266.85 327.58 268.96 328.38 271.27 329.37L272.14 329.75C272.375 329.86 272.558 330.057 272.65 330.3C272.701 330.422 272.727 330.553 272.727 330.685C272.727 330.817 272.701 330.948 272.65 331.07C272.503 331.312 272.271 331.49 272 331.57C271.354 331.78 270.679 331.881 270 331.87C269.3 331.87 268.59 331.87 267.87 331.87C265.963 331.753 264.081 331.369 262.28 330.73L262.05 330.65L261.96 330.87C261.157 332.718 259.745 334.236 257.96 335.17C256.562 335.911 254.989 336.256 253.41 336.17C252.378 336.103 251.365 335.867 250.41 335.47C249.75 335.21 249.41 335 249.39 335Z" fill="#FF9A6C"/>
<path d="M144.58 285.09C140.68 285.004 136.968 283.392 134.243 280.601C131.517 277.81 129.994 274.061 130 270.16L129.38 220.65C128.8 207.36 135.84 195.93 148.77 195.71H149.97C162.02 196.22 171.66 206.15 172.13 218.54C172.57 230.07 173.04 241.2 172.72 247.36C172.05 260.12 159.44 261.36 159.44 261.36C159.44 261.36 159.44 266.11 159.44 269.86C159.473 271.832 159.115 273.791 158.385 275.624C157.656 277.457 156.57 279.127 155.19 280.537C153.811 281.947 152.166 283.069 150.349 283.839C148.533 284.608 146.582 285.01 144.61 285.02L144.58 285.09Z" fill="#FFBF9D"/>
<path d="M159.44 261.51C153.689 261.247 148.143 259.3 143.49 255.91C143.49 255.91 146.99 265.67 159.41 265.04L159.44 261.51Z" fill="#FF9A6C"/>
<path d="M167.56 229.93C167.547 230.397 167.355 230.842 167.024 231.171C166.693 231.501 166.247 231.69 165.78 231.7C165.551 231.708 165.322 231.67 165.108 231.589C164.894 231.507 164.698 231.383 164.532 231.225C164.366 231.067 164.234 230.877 164.142 230.666C164.051 230.456 164.003 230.229 164 230C164.005 229.531 164.195 229.082 164.528 228.751C164.861 228.42 165.31 228.233 165.78 228.23C166.009 228.223 166.237 228.262 166.45 228.344C166.664 228.426 166.86 228.55 167.025 228.708C167.191 228.866 167.323 229.056 167.415 229.266C167.507 229.475 167.556 229.701 167.56 229.93Z" fill="#263238"/>
<path d="M169.27 224.11C169.04 224.34 167.74 223.26 165.83 223.19C163.92 223.12 162.49 224.03 162.29 223.78C162.09 223.53 162.44 223.25 163.06 222.78C163.906 222.231 164.903 221.962 165.91 222.01C166.901 222.038 167.857 222.389 168.63 223.01C169.2 223.57 169.38 224 169.27 224.11Z" fill="#263238"/>
<path d="M150.25 229.93C150.242 230.399 150.052 230.846 149.719 231.177C149.387 231.507 148.939 231.695 148.47 231.7C148.241 231.704 148.014 231.663 147.801 231.578C147.588 231.493 147.395 231.368 147.231 231.208C147.067 231.048 146.937 230.857 146.847 230.646C146.758 230.435 146.711 230.209 146.71 229.98C146.718 229.511 146.908 229.064 147.241 228.734C147.573 228.403 148.021 228.215 148.49 228.21C148.719 228.205 148.947 228.245 149.161 228.329C149.374 228.413 149.568 228.539 149.732 228.699C149.896 228.86 150.026 229.051 150.115 229.262C150.204 229.474 150.25 229.701 150.25 229.93Z" fill="#263238"/>
<path d="M150.57 223.77C150.34 224 149.03 222.92 147.13 222.85C145.23 222.78 143.79 223.69 143.59 223.44C143.39 223.19 143.73 222.91 144.36 222.44C145.206 221.891 146.203 221.622 147.21 221.67C148.201 221.702 149.155 222.052 149.93 222.67C150.49 223.23 150.68 223.67 150.57 223.77Z" fill="#263238"/>
<path d="M156.8 239.13C157.817 238.851 158.866 238.704 159.92 238.69C160.41 238.69 160.92 238.58 160.97 238.24C161.029 237.724 160.936 237.203 160.7 236.74C160.29 235.51 159.86 234.22 159.42 232.87C157.63 227.35 156.42 222.87 156.58 222.76C156.74 222.65 158.42 227.09 160.2 232.61C160.63 233.97 161.04 235.26 161.42 236.5C161.714 237.125 161.777 237.833 161.6 238.5C161.523 238.671 161.409 238.821 161.265 238.941C161.121 239.061 160.952 239.146 160.77 239.19C160.498 239.255 160.219 239.286 159.94 239.28C158.891 239.364 157.836 239.313 156.8 239.13Z" fill="#263238"/>
<path d="M151.43 217.67C151.15 218.16 149.32 217.55 147.07 217.41C144.82 217.27 142.93 217.54 142.72 217.01C142.63 216.76 143.03 216.33 143.84 216.01C144.902 215.558 146.059 215.373 147.21 215.47C148.361 215.536 149.48 215.879 150.47 216.47C151.22 216.94 151.55 217.43 151.43 217.67Z" fill="#263238"/>
<path d="M169.59 218.35C169.18 218.79 167.59 218.28 165.77 218.21C163.95 218.14 162.32 218.42 161.97 217.94C161.81 217.71 162.07 217.27 162.77 216.87C163.736 216.387 164.81 216.163 165.889 216.22C166.967 216.278 168.012 216.616 168.92 217.2C169.56 217.67 169.77 218.14 169.59 218.35Z" fill="#263238"/>
<path d="M130 230.14C129.79 230.04 121.58 227.19 121.5 235.92C121.42 244.65 129.96 242.92 129.98 242.69C130 242.46 130 230.14 130 230.14Z" fill="#FFBF9D"/>
<path d="M127.43 239.35C127.43 239.35 127.28 239.46 127.03 239.57C126.854 239.643 126.666 239.681 126.475 239.681C126.284 239.681 126.096 239.643 125.92 239.57C125.03 239.22 124.28 237.75 124.26 236.17C124.24 235.424 124.386 234.682 124.69 234C124.769 233.731 124.912 233.484 125.108 233.282C125.303 233.08 125.544 232.929 125.81 232.84C125.982 232.795 126.165 232.814 126.325 232.893C126.485 232.972 126.611 233.106 126.68 233.27C126.8 233.51 126.74 233.69 126.79 233.7C126.84 233.71 126.97 233.56 126.9 233.2C126.861 232.982 126.744 232.787 126.57 232.65C126.46 232.555 126.33 232.485 126.19 232.446C126.05 232.406 125.904 232.397 125.76 232.42C125.408 232.489 125.079 232.648 124.806 232.881C124.532 233.114 124.324 233.413 124.2 233.75C123.833 234.507 123.651 235.339 123.67 236.18C123.67 237.94 124.57 239.6 125.79 239.98C126.017 240.048 126.256 240.064 126.49 240.026C126.724 239.988 126.946 239.897 127.14 239.76C127.41 239.56 127.46 239.37 127.43 239.35Z" fill="#FF9A6C"/>
<path d="M136.1 208.34C136.298 207.223 136.798 206.182 137.546 205.329C138.293 204.476 139.259 203.844 140.34 203.5C142.203 202.873 144.223 202.898 146.07 203.57C150.86 205.31 159.07 207.92 161.16 206.25C164.22 203.85 164.96 202.25 164.96 202.25L166.65 204.09C168.02 203.31 163.9 198.73 160.52 197.15C155.42 194.77 147.63 193.3 142.92 194.67C137.25 196.32 132.54 199.21 129.69 204.52C126.945 209.941 125.653 215.981 125.94 222.05C125.94 223.9 125.65 229.2 127.43 229.61C128.82 229.92 130.59 230.54 130.49 233.2C130.421 234.171 130.737 235.13 131.37 235.87C132.92 237.57 134.82 235.97 135.7 234.37C137.57 230.95 137.78 226.87 137.94 222.95C138.206 220.169 138.027 217.364 137.41 214.64C136.765 212.907 136.306 211.11 136.04 209.28C136.027 208.965 136.047 208.65 136.1 208.34Z" fill="#263238"/>
<path d="M157.13 243.85C157.18 243.98 156.79 244.31 156 244.48C154.952 244.689 153.864 244.519 152.93 244C151.993 243.491 151.259 242.675 150.85 241.69C150.55 240.94 150.6 240.44 150.74 240.4C150.88 240.36 151.67 242.06 153.46 243.03C155.25 244 157.05 243.56 157.13 243.85Z" fill="#263238"/>
<path d="M166 360.35L125.38 351.41L99.27 286.72C99.27 286.72 64.38 294.46 58.63 314C53.63 330.85 43.37 405.33 66.73 451.24C69.7067 457.024 74.2238 461.872 79.7826 465.249C85.3414 468.627 91.7255 470.403 98.23 470.38H276C286.839 470.381 297.298 466.388 305.378 459.164C313.458 451.94 318.592 441.991 319.8 431.22C320.8 422.22 321.5 413.69 321.36 408.13L292.82 386.23L166 360.35Z" fill="#455A64"/>
<g opacity="0.3">
<path d="M274.6 382.85C287.11 399.19 302.33 413.85 320.53 423.47L321.4 401.29L287.78 377.36L274.6 382.85Z" fill="black"/>
</g>
<path d="M140.43 274.14C140.43 275.32 149.67 279.14 153.84 277.46C160.2 274.92 159.41 269.93 159.41 269.93L162.94 273.65L198.31 327.55L224.6 344.9L182.52 358.23L138.4 307.55L140.43 274.14Z" fill="#F5F5F5"/>
<path d="M129.28 256.05L128.35 257.79L124.15 265.62L106.68 276.76L142.61 319.47L159 358.23L198.3 370.53C198.3 370.53 179.6 341.78 173.79 327.08C167.98 312.38 167.39 313.08 162.09 302.3C158.487 294.706 155.283 286.928 152.49 279L129.28 256.05Z" fill="#FFA62F"/>
<path d="M213.46 333L221.17 340.19L223.35 344.63L194.69 331.3L174 302.3C174 302.3 166.63 285.95 164.1 280.09C161.43 273.93 159.44 270.44 159.44 270.44V265.58L169.87 275L178.58 277.59L193.14 300.59L213.46 333Z" fill="#FFA62F"/>
<path d="M204.63 305.88C204.63 305.88 201.15 298.46 198.31 292.29C191.91 278.39 176.82 277.07 176.82 277.07L193.5 323.33L213.93 337.82C213.93 337.82 219.75 339.82 220.48 337.82C220.48 337.82 224.73 322.48 224.6 322.42C224.47 322.36 210.06 318.05 210.06 318.05L204.26 305.05" fill="#FFA62F"/>
<path d="M235.36 291.44L215.51 324.51L236.3 323.9L254.63 293.26C254.791 292.991 254.878 292.685 254.882 292.371C254.885 292.058 254.806 291.749 254.651 291.477C254.497 291.204 254.273 290.978 254.002 290.82C253.731 290.663 253.423 290.58 253.11 290.58H236.88C236.574 290.58 236.273 290.659 236.007 290.81C235.74 290.96 235.517 291.178 235.36 291.44Z" fill="#263238"/>
<path d="M159 328.84L208.69 322.93L217.04 308.3L223.58 304.71C224.122 304.41 224.739 304.272 225.357 304.311C225.975 304.35 226.57 304.565 227.07 304.93L227.69 305.38L232.54 304.77C233.367 304.662 234.206 304.827 234.93 305.24L238.37 307.24C238.618 307.385 238.824 307.593 238.968 307.842C239.111 308.091 239.188 308.373 239.19 308.66C239.19 308.902 239.136 309.141 239.033 309.36C238.93 309.579 238.78 309.772 238.594 309.927C238.408 310.081 238.191 310.193 237.957 310.254C237.722 310.315 237.478 310.324 237.24 310.28L233.9 309.67L228.78 311.34C228.78 311.34 232.08 311.69 232.5 314.19C232.92 316.69 231.25 316.75 231.25 316.75C231.25 316.75 234.72 318.75 232.25 321.75C232.25 321.75 235.15 323.68 231.9 327.34C229.71 329.82 213.9 337.9 213.9 337.9L159 358.23V328.84Z" fill="#FFBF9D"/>
<path d="M232.17 321.73C232.17 321.73 232.54 321.73 232.98 322.18C233.266 322.512 233.464 322.91 233.557 323.338C233.65 323.766 233.633 324.21 233.51 324.63C233.075 325.819 232.338 326.874 231.37 327.69C230.29 328.747 229.123 329.711 227.88 330.57C225.609 332.092 223.21 333.414 220.71 334.52C219.708 335.04 218.66 335.465 217.58 335.79C218.543 335.19 219.545 334.656 220.58 334.19C223.003 333.001 225.342 331.648 227.58 330.14C228.805 329.299 229.962 328.363 231.04 327.34C231.968 326.595 232.694 325.629 233.15 324.53C233.276 324.161 233.313 323.767 233.258 323.382C233.202 322.996 233.056 322.628 232.83 322.31C232.638 322.087 232.416 321.892 232.17 321.73Z" fill="#FF9A6C"/>
<path d="M227.51 305.51C226.751 305.979 225.909 306.298 225.03 306.45C224.193 306.763 223.303 306.912 222.41 306.89C223.167 306.418 224.01 306.098 224.89 305.95C225.727 305.637 226.617 305.488 227.51 305.51Z" fill="#FF9A6C"/>
<path d="M233.91 309.63C232.828 310.255 231.668 310.733 230.46 311.05C229.301 311.523 228.083 311.836 226.84 311.98C227.917 311.346 229.078 310.867 230.29 310.56C231.447 310.082 232.666 309.769 233.91 309.63Z" fill="#FF9A6C"/>
<path d="M228 316.26C227.85 316.26 227.78 315.81 227.61 315.32C227.44 314.83 227.24 314.45 227.35 314.32C227.46 314.19 227.9 314.52 228.1 315.13C228.3 315.74 228.09 316.28 228 316.26Z" fill="#FF9A6C"/>
<path d="M229.65 322C229.5 322 229.56 321.25 229.35 320.44C229.14 319.63 228.78 319.01 228.89 318.91C229 318.81 229.62 319.35 229.89 320.31C230.16 321.27 229.78 322 229.65 322Z" fill="#FF9A6C"/>
<path d="M108.08 275.87C106.42 276.87 92.37 286.47 94.42 302.19C96.47 317.91 127.57 353.45 134.06 354.13L159.01 358.23V328.84L147.01 328.16L131.33 297.4L108.08 275.87Z" fill="#FFA62F"/>
<path d="M159 327.42C158.706 327.474 158.409 327.501 158.11 327.5L155.59 327.6L146.65 327.8H146.53L146.45 327.7L140.13 319.2C136.36 314.11 132.98 309.48 130.55 306.11L127.7 302.11C127.326 301.632 126.991 301.123 126.7 300.59C127.122 301.022 127.51 301.487 127.86 301.98L130.86 305.88C133.37 309.18 136.86 313.78 140.57 318.88L146.84 327.41L146.64 327.31H155.58H158.1C158.403 327.31 158.706 327.346 159 327.42Z" fill="#263238"/>
<path d="M152.94 282.84C152.752 282.558 152.588 282.26 152.45 281.95L151.22 279.37H151.49C150.582 280.69 149.777 282.077 149.08 283.52C148.198 285.441 147.151 287.281 145.95 289.02L145.75 289.3L145.54 289.03C143.92 287.03 142.07 284.92 140.08 282.75C135.73 278.02 131.57 273.92 128.6 270.92L125.09 267.35C124.646 266.931 124.238 266.476 123.87 265.99C124.36 266.358 124.822 266.762 125.25 267.2L128.88 270.64C131.88 273.57 136.13 277.64 140.5 282.37C142.5 284.55 144.34 286.69 145.95 288.7H145.53C146.724 286.986 147.78 285.18 148.69 283.3C149.418 281.852 150.272 280.47 151.24 279.17L151.4 278.95L151.5 279.19C151.95 280.27 152.32 281.14 152.6 281.83C152.756 282.151 152.87 282.49 152.94 282.84Z" fill="#263238"/>
<path d="M170 275.32C170.334 275.766 170.587 276.267 170.75 276.8C171.262 278.152 171.7 279.53 172.06 280.93L172.4 282.15L171.62 281.15C170.504 279.766 169.28 278.472 167.96 277.28C166.8 276.22 165.67 275.28 164.64 274.34L165.06 274.18C164.915 275.819 164.865 277.465 164.91 279.11C164.948 279.763 164.863 280.418 164.66 281.04C164.6 281.04 164.66 280.33 164.59 279.12C164.46 277.456 164.46 275.784 164.59 274.12L164.64 273.65L165.01 273.96C166.01 274.83 167.21 275.8 168.38 276.88C169.727 278.097 170.959 279.436 172.06 280.88L171.62 281.09C171.19 279.36 170.84 277.92 170.52 276.93C170.309 276.406 170.135 275.868 170 275.32Z" fill="#263238"/>
<path d="M206.09 323.24C205.664 322.907 205.266 322.539 204.9 322.14L201.83 319C200.54 317.65 199.01 316.14 197.33 314.27C196.56 313.27 195.88 312.2 195.08 311.15C194.268 310.015 193.571 308.803 193 307.53C191.81 304.95 190.91 302.4 190.1 300.09C189.29 297.78 188.58 295.69 187.93 293.97C187.28 292.25 186.68 290.87 186.22 289.97C185.949 289.506 185.709 289.025 185.5 288.53C185.5 288.53 185.61 288.63 185.76 288.85C185.997 289.17 186.214 289.504 186.41 289.85C187.127 291.14 187.759 292.477 188.3 293.85C189.01 295.57 189.76 297.64 190.59 299.94C191.42 302.24 192.33 304.77 193.51 307.32C194.064 308.557 194.733 309.739 195.51 310.85C196.32 311.92 197 313.03 197.73 313.98C199.3 315.77 200.87 317.39 202.1 318.75L205.05 322C205.431 322.383 205.779 322.798 206.09 323.24Z" fill="#263238"/>
<path d="M220.51 339.83L314.83 337.18C316.324 337.14 317.81 337.416 319.19 337.99C322.62 339.45 328.79 343.2 333.02 352.18C339.15 365.18 367.75 420.18 367.75 420.18L338.83 435L303.36 369.2L194 359.9L195.27 351.16L220.51 339.83Z" fill="#263238"/>
<path d="M330.24 423.41L345.31 449.28L346.31 455.82C346.455 456.771 346.786 457.684 347.285 458.507C347.783 459.33 348.439 460.047 349.214 460.616C349.99 461.185 350.87 461.596 351.804 461.825C352.739 462.054 353.709 462.096 354.66 461.95L400.53 454.95C401.072 454.878 401.59 454.682 402.045 454.378C402.499 454.074 402.878 453.67 403.151 453.197C403.425 452.723 403.586 452.193 403.622 451.648C403.658 451.102 403.568 450.555 403.36 450.05C403.163 449.602 402.863 449.208 402.484 448.898C402.105 448.589 401.658 448.374 401.18 448.27C397.34 447.27 367.74 436.42 367.74 436.42L355.4 411.66L330.24 423.41Z" fill="#E0E0E0"/>
<path d="M342.87 429.4C341.611 428.124 340.476 426.731 339.48 425.24C338.334 423.853 337.329 422.356 336.48 420.77C337.734 422.048 338.866 423.441 339.86 424.93C341.007 426.318 342.015 427.815 342.87 429.4Z" fill="#263238"/>
<path d="M351.87 425.78C350.606 424.492 349.541 423.022 348.71 421.42C347.731 419.903 346.976 418.253 346.47 416.52C346.61 416.45 347.67 418.61 349.16 421.16C350.65 423.71 352 425.69 351.87 425.78Z" fill="#263238"/>
<path d="M358.16 461.12C358.06 461.12 357.82 460.23 357.16 458.88C356.277 457.129 355.019 455.594 353.476 454.384C351.932 453.174 350.141 452.319 348.23 451.88C346.76 451.53 345.81 451.52 345.81 451.42C346.636 451.232 347.494 451.232 348.32 451.42C350.342 451.76 352.246 452.602 353.859 453.869C355.471 455.135 356.74 456.786 357.55 458.67C357.928 459.433 358.136 460.269 358.16 461.12Z" fill="#263238"/>
<path d="M389.07 456.67C388.69 456.168 388.44 455.581 388.34 454.96C387.979 453.467 388.055 451.901 388.56 450.45C389.081 449.027 389.895 447.729 390.95 446.64C391.34 446.15 391.822 445.742 392.37 445.44C392.43 445.51 391.96 446.04 391.27 446.92C390.367 448.044 389.645 449.303 389.13 450.65C388.67 452.007 388.543 453.454 388.76 454.87C388.909 455.461 389.013 456.063 389.07 456.67Z" fill="#263238"/>
<path d="M191.63 352.7C191.63 352.7 288.96 342.94 293.69 343.33C302.42 344.05 318.52 357.82 347.09 377C361.892 387.059 375.63 398.603 388.09 411.45L378.96 432.29C378.96 432.29 314.96 408.96 304.91 400.57C296.57 393.57 281.35 383.67 281.35 383.67L243.81 384.05L215.9 386.51C209.016 387.119 202.089 385.979 195.763 383.193C189.438 380.408 183.919 376.069 179.72 370.58L168.89 356.43L191.63 352.7Z" fill="#263238"/>
<path d="M280.88 383.38C280.88 383.38 281.04 383.47 281.33 383.67L282.64 384.57L287.69 388.12C292.08 391.25 298.52 395.75 306.42 401.72C306.92 402.09 307.42 402.52 307.92 402.85L309.53 403.85C310.69 404.43 311.85 405.07 313.08 405.64L316.84 407.39L320.84 409.14C326.247 411.48 332.077 413.92 338.33 416.46C350.81 421.53 364.81 427.04 379.92 432.85L379.59 433L387.86 412L387.92 412.3L376.56 400.72C373.89 398.41 371.03 395.95 368.11 393.52C350.693 379.167 332.478 365.812 313.55 353.52C310.987 351.326 308.221 349.38 305.29 347.71C302.507 346.089 299.543 344.8 296.46 343.87C295.7 343.67 294.94 343.51 294.19 343.32L291.92 342.97L289.65 342.85H278.65L249.26 342.79L230.18 342.71H225.18H223.88C223.733 342.719 223.587 342.719 223.44 342.71H223.88H225.18H230.18L249.26 342.64L278.65 342.58H289.65L291.96 342.69L294.28 343.04C295.04 343.23 295.81 343.39 296.58 343.6C299.703 344.527 302.704 345.823 305.52 347.46C308.489 349.139 311.289 351.101 313.88 353.32C332.845 365.595 351.089 378.95 368.52 393.32C371.45 395.75 374.31 398.21 376.98 400.53L388.34 412.12L388.46 412.25L388.4 412.42L380.1 433.42L380.01 433.66L379.77 433.57C364.66 427.74 350.66 422.2 338.19 417.1C331.96 414.55 326.12 412.1 320.72 409.73L316.72 407.96L312.92 406C311.7 405.41 310.53 404.77 309.37 404.18L307.72 403.18C307.18 402.85 306.72 402.42 306.22 402.05C298.36 396.05 291.94 391.5 287.59 388.32L282.59 384.71L281.31 383.77C281 383.5 280.88 383.38 280.88 383.38Z" fill="#455A64"/>
<path d="M358.26 427L385.26 437.61L389.75 442.47C390.404 443.177 391.191 443.748 392.065 444.15C392.94 444.553 393.885 444.779 394.847 444.816C395.809 444.853 396.769 444.7 397.672 444.367C398.575 444.033 399.404 443.524 400.11 442.87L434.17 411.35C434.578 410.986 434.897 410.533 435.103 410.026C435.308 409.519 435.395 408.972 435.357 408.427C435.318 407.881 435.155 407.352 434.88 406.879C434.605 406.407 434.225 406.003 433.77 405.7C433.355 405.442 432.886 405.285 432.4 405.242C431.913 405.198 431.424 405.27 430.97 405.45C427.24 406.79 396.63 414.36 396.63 414.36L376.1 398L358.26 427Z" fill="#E0E0E0"/>
<path d="M358.26 427C358.26 427 358.35 426.83 358.55 426.49L359.46 424.99C360.27 423.64 361.46 421.69 362.97 419.19C366.05 414.12 370.49 406.84 375.97 397.9L376.08 397.71L376.26 397.85L396.79 414.17H396.58L414.84 409.57L424.49 407.06C426.12 406.62 427.77 406.19 429.41 405.71L430.63 405.33C431.054 405.167 431.498 405.063 431.95 405.02C432.421 405.001 432.891 405.08 433.33 405.252C433.769 405.424 434.168 405.686 434.5 406.02C435.151 406.671 435.546 407.534 435.614 408.451C435.682 409.369 435.418 410.281 434.87 411.02C434.596 411.382 434.288 411.717 433.95 412.02L433.02 412.88L431.17 414.59L423.91 421.3L410.18 433.98L403.79 439.88L400.73 442.71C400.233 443.192 399.691 443.624 399.11 444C397.687 444.874 396.014 445.25 394.354 445.069C392.694 444.888 391.141 444.16 389.94 443C388.22 441.21 386.66 439.46 385.13 437.81H385.2C376.87 434.49 370.13 431.81 365.44 429.93L360.12 427.78L358.74 427.22L358.29 427.03C358.29 427.03 358.47 427.08 358.8 427.21L360.21 427.74L365.61 429.82L385.33 437.47C386.87 439.11 388.46 440.87 390.14 442.62C391.042 443.48 392.154 444.089 393.365 444.386C394.575 444.682 395.843 444.656 397.04 444.31C397.664 444.13 398.259 443.864 398.81 443.52C399.364 443.156 399.88 442.737 400.35 442.27C401.35 441.34 402.35 440.39 403.41 439.44C405.477 437.52 407.603 435.547 409.79 433.52C414.15 429.52 418.74 425.22 423.5 420.82C425.873 418.613 428.29 416.373 430.75 414.1L432.6 412.39C433.227 411.846 433.822 411.265 434.38 410.65C434.857 410.01 435.089 409.221 435.033 408.425C434.978 407.628 434.64 406.878 434.08 406.31C433.796 406.029 433.456 405.811 433.082 405.67C432.708 405.529 432.309 405.468 431.91 405.49C431.505 405.531 431.108 405.628 430.73 405.78L429.48 406.16C427.83 406.64 426.19 407.07 424.55 407.51L414.89 410.01L396.63 414.58H396.51L396.42 414.51L376 398.15H376.29L363.2 419.21L359.57 425L358.57 426.51C358.39 426.81 358.26 427 358.26 427Z" fill="#263238"/>
<path d="M402.51 440.22C402.44 440.29 401.73 439.67 400.4 438.94C398.689 437.98 396.787 437.41 394.831 437.27C392.874 437.13 390.91 437.424 389.08 438.13C387.67 438.66 386.87 439.18 386.81 439.13C387.407 438.527 388.127 438.06 388.92 437.76C390.785 436.911 392.833 436.543 394.877 436.69C396.921 436.837 398.895 437.493 400.62 438.6C401.364 438.991 402.01 439.545 402.51 440.22Z" fill="#263238"/>
<path d="M425.63 419.23C425.037 419.022 424.5 418.679 424.06 418.23C422.929 417.193 422.121 415.854 421.73 414.37C421.365 412.897 421.31 411.365 421.57 409.87C421.616 409.248 421.789 408.642 422.08 408.09C422.13 408.701 422.103 409.316 422 409.92C421.87 411.357 421.975 412.806 422.31 414.21C422.687 415.595 423.394 416.868 424.37 417.92C425.12 418.72 425.69 419.14 425.63 419.23Z" fill="#263238"/>
<path d="M264.33 383.39C262.24 373.48 257.97 363.34 249.52 357.77C243.11 353.53 235.18 352.49 227.52 351.55L68.06 331.94C66.63 357.07 77.39 388.35 88.37 411.01C90.07 414.53 92.04 418.13 95.3 420.28C99.3 422.9 104.38 422.87 109.14 422.75C162.79 421.38 216.46 419.1 269.81 413.23C266.81 403.56 266.41 393.29 264.33 383.39Z" fill="#455A64"/>
<path d="M126.73 339.15C126.101 339.158 125.473 339.118 124.85 339.03L119.75 338.48C115.45 337.98 109.52 337.25 102.98 336.35C96.44 335.45 90.52 334.54 86.26 333.79C84.12 333.41 82.4 333.1 81.26 332.79C80.6395 332.687 80.0277 332.536 79.43 332.34C80.0582 332.369 80.6834 332.446 81.3 332.57L86.36 333.35C90.64 333.99 96.55 334.84 103.09 335.74L119.84 338.03L124.92 338.76C125.533 338.842 126.138 338.973 126.73 339.15Z" fill="#263238"/>
<path d="M127.55 470.33C127.487 470.232 127.434 470.128 127.39 470.02C127.27 469.79 127.13 469.48 126.95 469.1L125.33 465.53L124.16 463C123.76 462 123.37 461 122.92 459.86C122.06 457.61 120.98 455.07 120.06 452.16C119.58 450.72 119.06 449.21 118.55 447.63C118.04 446.05 117.55 444.37 117.1 442.63C116.1 439.2 115.24 435.46 114.32 431.54C110.61 414.432 109.394 396.877 110.71 379.42C111.08 375.42 111.37 371.6 111.93 368.06C112.2 366.29 112.38 364.57 112.68 362.93C112.98 361.29 113.28 359.73 113.56 358.23C114.07 355.23 114.79 352.56 115.33 350.23C115.62 349.05 115.86 347.96 116.13 346.96C116.4 345.96 116.69 345.06 116.93 344.24C117.4 342.63 117.78 341.37 118.04 340.48L118.35 339.48C118.378 339.366 118.419 339.256 118.47 339.15C118.462 339.266 118.439 339.38 118.4 339.49L118.15 340.49L117.15 344.27L116.4 347C116.15 348 115.92 349.11 115.65 350.28C115.13 352.64 114.44 355.28 113.96 358.28C113.7 359.77 113.41 361.34 113.12 362.97C112.83 364.6 112.66 366.32 112.41 368.09C111.86 371.62 111.59 375.43 111.23 379.43C109.995 396.846 111.206 414.35 114.83 431.43C115.74 435.34 116.53 439.08 117.56 442.5C118.05 444.22 118.46 445.89 118.97 447.5C119.48 449.11 119.97 450.59 120.45 452.03C121.34 454.94 122.39 457.48 123.22 459.75C123.66 460.88 124.03 461.94 124.42 462.9L125.54 465.49L127.06 469.1L127.45 470.05C127.493 470.14 127.526 470.233 127.55 470.33Z" fill="#263238"/>
<path d="M125.86 419.66C123.774 419.85 121.676 419.85 119.59 419.66C117.49 419.658 115.395 419.467 113.33 419.09C115.419 418.907 117.521 418.907 119.61 419.09C121.706 419.096 123.797 419.287 125.86 419.66Z" fill="#263238"/>
<path d="M124.41 427C122.183 426.805 120.006 426.234 117.97 425.31C115.864 424.56 113.902 423.454 112.17 422.04C112.26 421.9 114.8 423.43 118.17 424.79C121.54 426.15 124.44 426.78 124.41 427Z" fill="#263238"/>
<path d="M110.44 376.88C109.193 377.663 107.761 378.101 106.29 378.15C104.835 378.377 103.347 378.222 101.97 377.7C101.97 377.53 103.9 377.82 106.24 377.59C108.58 377.36 110.38 376.73 110.44 376.88Z" fill="#263238"/>
<path d="M113.63 374.48C112.081 374.803 110.469 374.599 109.05 373.9C107.558 373.371 106.289 372.353 105.45 371.01C106.645 371.92 107.924 372.714 109.27 373.38C111.55 374.37 113.63 374.3 113.63 374.48Z" fill="#263238"/>
<path d="M169.78 203.16C169.382 202.123 168.741 201.197 167.911 200.459C167.081 199.721 166.086 199.194 165.01 198.92C162.844 198.384 160.571 198.467 158.45 199.16L137.73 203.9C140.73 205.9 146.9 207.78 150.44 208.16C155.61 208.71 159.25 208.76 162.33 206.98C162.53 207.491 162.837 207.953 163.229 208.337C163.621 208.72 164.09 209.016 164.605 209.205C165.12 209.394 165.67 209.472 166.217 209.433C166.764 209.394 167.297 209.24 167.78 208.98C168.715 208.372 169.419 207.469 169.781 206.414C170.144 205.36 170.143 204.214 169.78 203.16Z" fill="#263238"/>
<path d="M376.79 420.52C372.579 419.647 368.531 418.122 364.79 416C364.85 415.86 367.49 417 370.79 418.24C374.09 419.48 376.83 420.38 376.79 420.52Z" fill="#263238"/>
<path d="M381.35 411.66C379.539 410.914 377.766 410.076 376.04 409.15C374.239 408.385 372.479 407.524 370.77 406.57C372.683 407.046 374.53 407.754 376.27 408.68C378.083 409.453 379.79 410.455 381.35 411.66Z" fill="#263238"/>
<path d="M216.31 348.91L258.08 349.42L308.52 339.42C309.312 339.254 310.036 338.852 310.595 338.266C311.153 337.681 311.521 336.939 311.65 336.14L318.51 290.72C318.588 290.199 318.541 289.666 318.374 289.166C318.207 288.666 317.925 288.213 317.55 287.843C317.175 287.472 316.717 287.196 316.215 287.035C315.713 286.875 315.18 286.836 314.66 286.92L263.11 295.31C262.396 295.427 261.738 295.772 261.236 296.292C260.733 296.813 260.412 297.482 260.32 298.2L254.57 344.39L216.37 344.2C215.746 344.2 215.147 344.447 214.705 344.888C214.262 345.328 214.013 345.926 214.01 346.55C214.007 347.166 214.247 347.759 214.677 348.201C215.107 348.642 215.694 348.897 216.31 348.91Z" fill="#E0E0E0"/>
<path d="M216.31 348.91C216.04 348.93 215.769 348.885 215.52 348.78C215.142 348.644 214.805 348.414 214.54 348.111C214.276 347.808 214.094 347.443 214.01 347.05C213.942 346.728 213.941 346.396 214.006 346.073C214.071 345.751 214.201 345.445 214.388 345.175C214.575 344.904 214.816 344.675 215.095 344.5C215.373 344.326 215.685 344.21 216.01 344.16C217.54 344.1 219.27 344.16 221.25 344.16L254.56 344.24L254.38 344.4C256.02 331.11 257.97 315.4 260.12 297.92C260.245 297.337 260.512 296.793 260.897 296.338C261.283 295.882 261.775 295.529 262.33 295.31C262.876 295.134 263.439 295.017 264.01 294.96L265.67 294.68L272.4 293.59L286.27 291.32L300.64 289L307.98 287.81L311.69 287.2L313.55 286.9C314.187 286.762 314.838 286.691 315.49 286.69C316.204 286.752 316.883 287.023 317.444 287.47C318.004 287.916 318.42 288.518 318.64 289.2C318.829 289.875 318.849 290.586 318.7 291.27L318.4 293.21C318.013 295.797 317.627 298.367 317.24 300.92C316.47 306.01 315.71 311.04 314.96 315.97C314.21 320.9 313.48 325.73 312.77 330.47L312.23 333.99C312.14 334.58 312.06 335.16 311.97 335.74C311.913 336.354 311.747 336.954 311.48 337.51C311.199 338.061 310.8 338.544 310.311 338.922C309.821 339.301 309.254 339.567 308.65 339.7L305.27 340.37L258.12 349.65L227.5 349.2L219.23 349.05L217 349H219.15L227.43 349.05L258.05 349.34L305.18 339.94L308.55 339.26C309.084 339.144 309.585 338.911 310.018 338.577C310.45 338.243 310.803 337.817 311.05 337.33C311.293 336.822 311.439 336.272 311.48 335.71L311.75 333.96C311.92 332.79 312.1 331.61 312.28 330.43L314.46 315.93C315.2 311.003 315.957 306.003 316.73 300.93C317.11 298.383 317.497 295.813 317.89 293.22L318.18 291.28C318.335 290.68 318.335 290.05 318.18 289.45C317.994 288.866 317.64 288.35 317.161 287.967C316.682 287.585 316.101 287.352 315.49 287.3C314.881 287.305 314.275 287.372 313.68 287.5L311.81 287.81L308.11 288.41L300.76 289.6L286.4 291.94L272.53 294.19L265.8 295.28L264.14 295.55C263.6 295.603 263.067 295.713 262.55 295.88C262.071 296.067 261.646 296.37 261.314 296.763C260.982 297.156 260.754 297.626 260.65 298.13C258.45 315.55 256.47 331.28 254.8 344.56V344.72H254.63L221.32 344.48C219.32 344.48 217.59 344.42 216.1 344.48C215.763 344.527 215.441 344.648 215.158 344.834C214.874 345.021 214.636 345.269 214.46 345.56C214.287 345.847 214.179 346.168 214.142 346.501C214.106 346.834 214.143 347.171 214.251 347.488C214.359 347.805 214.534 348.095 214.766 348.337C214.997 348.579 215.278 348.768 215.59 348.89C215.828 348.925 216.07 348.932 216.31 348.91Z" fill="#263238"/>
<path d="M264.78 296.77C264.92 296.77 263.54 308.84 261.69 323.7C259.84 338.56 258.23 350.59 258.08 350.57C257.93 350.55 259.33 338.5 261.18 323.64C263.03 308.78 264.64 296.75 264.78 296.77Z" fill="#263238"/>
<path d="M287.2 315.52C286.15 317.71 286.73 320.17 288.49 321.02C290.25 321.87 292.49 320.77 293.58 318.58C294.67 316.39 294.05 313.93 292.29 313.09C290.53 312.25 288.25 313.33 287.2 315.52Z" fill="white"/>
<path d="M668.68 296.65C668.663 296.78 668.63 296.908 668.58 297.03L668.22 298.12C667.9 299.07 667.44 300.47 666.79 302.27C665.53 305.87 663.63 311.06 661.12 317.41C654.646 333.98 646.906 350.027 637.97 365.41C635.449 369.779 633.241 374.32 631.36 379C629.663 383.39 628.475 387.96 627.82 392.62C626.842 400.54 626.842 408.55 627.82 416.47C628.55 423.25 629.53 428.69 630.16 432.47C630.48 434.32 630.73 435.78 630.91 436.8C630.99 437.27 631.05 437.64 631.09 437.92C631.118 438.048 631.134 438.179 631.14 438.31C631.097 438.186 631.064 438.059 631.04 437.93C630.98 437.66 630.9 437.29 630.81 436.81C630.61 435.81 630.32 434.35 629.96 432.5C629.27 428.75 628.23 423.32 627.45 416.5C626.429 408.534 626.409 400.471 627.39 392.5C628.032 387.802 629.216 383.195 630.92 378.77C632.803 374.05 635.022 369.472 637.56 365.07C646.478 349.7 654.249 333.694 660.81 317.18C663.37 310.86 665.32 305.69 666.64 302.11C667.3 300.34 667.81 298.96 668.16 297.99L668.57 296.92C668.62 296.77 668.68 296.65 668.68 296.65Z" fill="#263238"/>
<path d="M659 356.62C658.909 356.822 658.802 357.016 658.68 357.2L657.68 358.81C656.8 360.21 655.49 362.21 653.87 364.67C650.63 369.6 646.01 376.31 641.36 384.01C639.06 387.87 637.01 391.63 635.29 395.12C633.57 398.61 632.19 401.84 631.1 404.57C630.01 407.3 629.21 409.57 628.71 411.12C628.45 411.86 628.25 412.46 628.09 412.92C628.031 413.132 627.947 413.337 627.84 413.53C627.863 413.311 627.914 413.096 627.99 412.89C628.12 412.42 628.3 411.81 628.51 411.06C628.96 409.47 629.73 407.21 630.75 404.44C631.77 401.67 633.14 398.44 634.85 394.91C636.56 391.38 638.6 387.61 640.92 383.74C645.57 376.02 650.25 369.34 653.56 364.46L657.51 358.7L658.6 357.14C658.715 356.954 658.849 356.779 659 356.62Z" fill="#263238"/>
<path d="M668.58 296.65C668.83 294.21 666.19 291.78 663.89 290.92C661.52 290.225 659 290.225 656.63 290.92C649.681 292.577 643.357 296.2 638.415 301.358C633.472 306.515 630.12 312.987 628.76 320C635.179 316.826 641.781 314.034 648.53 311.64L647.39 311.97C650.663 311.31 653.754 309.946 656.45 307.975C659.145 306.003 661.38 303.47 663 300.55C663.527 299.381 664.232 298.302 665.09 297.35C665.53 296.883 666.104 296.565 666.733 296.44C667.362 296.315 668.015 296.388 668.6 296.65" fill="#455A64"/>
<path d="M668.6 296.63C674.981 292.218 682.826 290.457 690.48 291.72C694.267 292.388 697.86 293.882 701.004 296.096C704.148 298.31 706.765 301.19 708.67 304.53C710.504 307.903 711.474 311.677 711.493 315.516C711.512 319.355 710.58 323.139 708.78 326.53C705.24 319.18 701.45 311.53 694.87 306.71C693.32 305.59 691.58 304.56 690.71 302.85C689.71 300.85 690.12 298.44 689.25 296.4C688.19 293.89 685.25 293.15 682.54 293.01C679.83 292.87 671.92 295.38 668.6 296.59" fill="#455A64"/>
<path d="M668.43 296.51C674.97 294.57 682.37 297.77 686.83 302.67C691.29 307.57 693.54 314.15 694.31 320.73C695.08 327.31 694.46 333.96 693.79 340.55C688.667 332.902 684.858 324.453 682.52 315.55C681.52 311.55 680.7 307.39 678.81 303.69C677.725 301.793 676.23 300.163 674.434 298.919C672.638 297.675 670.587 296.849 668.43 296.5" fill="#455A64"/>
<path d="M668.21 296.65C673.44 294.23 676.39 288.77 677.06 283.04C677.365 280.166 676.945 277.261 675.837 274.592C674.73 271.923 672.97 269.574 670.72 267.76C668.145 270.181 666.317 273.289 665.452 276.716C664.587 280.144 664.722 283.747 665.84 287.1C666.95 290.25 668.96 293.4 668.21 296.65Z" fill="#455A64"/>
<path d="M626.41 402.72C626.275 402.471 626.165 402.21 626.08 401.94C625.87 401.42 625.62 400.64 625.21 399.66C624.45 397.66 623.21 394.86 621.64 391.45C617.318 382.592 612.386 374.045 606.88 365.87C601.472 357.625 595.477 349.782 588.94 342.4C586.968 340.16 584.822 338.08 582.52 336.18C581.889 335.67 581.22 335.209 580.52 334.8C580.263 334.679 580.016 334.539 579.78 334.38C580.049 334.471 580.313 334.578 580.57 334.7C581.294 335.085 581.986 335.526 582.64 336.02C585 337.87 587.195 339.921 589.2 342.15C595.835 349.477 601.886 357.31 607.3 365.58C612.843 373.766 617.757 382.361 622 391.29C623.58 394.74 624.73 397.59 625.43 399.59C625.81 400.59 626.03 401.37 626.21 401.9C626.3 402.167 626.367 402.441 626.41 402.72Z" fill="#263238"/>
<path d="M645.23 462.46H609.49L603.92 421.09H651.88L645.23 462.46Z" fill="#FFA62F"/>
<path d="M678.72 371.43C675.11 363.68 665.83 358.62 657.31 359.31C658.228 359.766 659.027 360.431 659.643 361.25C660.26 362.069 660.676 363.021 660.86 364.03C661.195 366.047 661.376 368.086 661.4 370.13C662.17 379.92 668.47 388.27 674.51 396C678.76 401.43 683.04 406.89 688.12 411.56C687.51 397.64 686.63 382.89 678.72 371.43Z" fill="#455A64"/>
<path d="M657.31 359.42C662.72 355.26 669.7 353.53 676.53 353.42C683.36 353.31 690.1 354.82 696.71 356.5C700.71 357.5 704.71 358.62 708.12 360.92C711.53 363.22 714.23 366.92 714.29 371.01C708.68 364.84 699.64 363.65 691.63 361.32C686.21 359.75 680.97 357.49 675.44 356.32C669.231 355.307 662.861 356.361 657.31 359.32" fill="#455A64"/>
<path d="M658.24 358.32C655.87 355.83 657.18 350.01 659.24 347.27C661.3 344.53 664.59 342.98 667.83 341.83C672.089 340.311 676.508 339.281 681 338.76C680.424 341.584 678.964 344.152 676.83 346.09C674.702 348.001 672.376 349.677 669.89 351.09L658.22 358.31" fill="#455A64"/>
<path d="M636 355C629.23 358 624 363.51 618.93 368.91C626.444 367.081 633.631 364.106 640.24 360.09C642.86 358.49 645.46 356.7 648.46 356.03C651.46 355.36 654.82 356.7 657.32 358.77C653.07 352.51 642.77 352 636 355Z" fill="#455A64"/>
<path d="M632.81 399.29C636.6 390.59 635 380.04 639.81 371.87C643.5 365.61 650.3 361.87 657.07 359.25C658.64 363.96 657.89 369.25 655.9 373.78C653.91 378.31 650.75 382.27 647.42 385.95C642.81 391.04 637.8 395.75 632.8 400.46" fill="#455A64"/>
<path d="M654.08 421.09H600.63V430.4H654.08V421.09Z" fill="#FFA62F"/>
<path d="M652.3 430.69C652.3 430.84 640.73 430.95 626.47 430.95C612.21 430.95 600.63 430.84 600.63 430.69C600.63 430.54 612.2 430.43 626.47 430.43C640.74 430.43 652.3 430.55 652.3 430.69Z" fill="#263238"/>
<path d="M671 297C669.23 293.694 667.151 290.563 664.79 287.65C662.405 284.73 659.238 282.548 655.66 281.36C650.84 279.95 645.66 281.07 640.86 282.5C635.236 284.177 629.744 286.269 624.43 288.76C631.448 291.401 639.162 291.539 646.27 289.15C649.95 287.9 653.52 288.06 657.38 288.5C662.08 289.03 667.96 293.38 671 297Z" fill="#455A64"/>
<path d="M543.34 352.16C534.92 362.88 532.11 377.16 533.06 390.8C538.07 372.652 548.493 356.462 562.94 344.39C568.44 339.83 575.46 336.21 582.27 336.21C568.26 335 552 341.1 543.34 352.16Z" fill="#455A64"/>
<path d="M562.9 330.63C558.2 330.98 553.9 333.36 550.02 336.02C544.08 340.1 538.5 345.25 535.91 352.02C541.171 345.828 547.876 341.027 555.434 338.043C562.991 335.059 571.168 333.983 579.24 334.91C574.12 332.33 568.6 330.21 562.9 330.63Z" fill="#455A64"/>
<path d="M576.06 314.53C573.34 316.42 571.26 319.53 571.4 322.83C571.585 325.113 572.536 327.266 574.1 328.94C575.816 330.933 577.722 332.755 579.79 334.38C581.52 326.74 583.59 318.76 585.32 311.12C582.035 311.622 578.886 312.782 576.06 314.53Z" fill="#455A64"/>
<path d="M592 313.8C588.232 316.062 585.197 319.364 583.26 323.31C581.47 327.31 580.73 332.31 582.98 336.05C589.428 326.407 596.384 317.114 603.82 308.21C599.71 309.689 595.751 311.561 592 313.8Z" fill="#455A64"/>
<path d="M605.47 326.92C601.237 326.623 596.996 327.358 593.11 329.062C589.224 330.765 585.81 333.386 583.16 336.7C586.861 334.813 591.025 334.026 595.16 334.43C605.52 335.772 615.798 337.678 625.95 340.14C623.863 336.442 620.908 333.307 617.34 331.004C613.773 328.701 609.699 327.3 605.47 326.92Z" fill="#455A64"/>
<path d="M584.14 336.05C576.2 336.49 569.26 342.6 566.49 350.05C563.72 357.5 564.67 365.95 567.66 373.31C570.65 380.67 575.56 387.09 580.75 393.11C583.35 384.11 585.97 375.11 587.12 365.89C588.27 356.67 587.39 344.79 584.14 336.05Z" fill="#455A64"/>
<g opacity="0.3">
<path d="M543.34 352.16C534.92 362.88 532.11 377.16 533.06 390.8C538.07 372.652 548.493 356.462 562.94 344.39C568.44 339.83 575.46 336.21 582.27 336.21C568.26 335 552 341.1 543.34 352.16Z" fill="black"/>
<path d="M562.9 330.63C558.2 330.98 553.9 333.36 550.02 336.02C544.08 340.1 538.5 345.25 535.91 352.02C541.171 345.828 547.876 341.027 555.434 338.043C562.991 335.059 571.168 333.983 579.24 334.91C574.12 332.33 568.6 330.21 562.9 330.63Z" fill="black"/>
<path d="M576.06 314.53C573.34 316.42 571.26 319.53 571.4 322.83C571.585 325.113 572.536 327.266 574.1 328.94C575.816 330.933 577.722 332.755 579.79 334.38C581.52 326.74 583.59 318.76 585.32 311.12C582.035 311.622 578.886 312.782 576.06 314.53Z" fill="black"/>
<path d="M592 313.8C588.232 316.062 585.197 319.364 583.26 323.31C581.47 327.31 580.73 332.31 582.98 336.05C589.428 326.407 596.384 317.114 603.82 308.21C599.71 309.689 595.751 311.561 592 313.8Z" fill="black"/>
<path d="M605.47 326.92C601.237 326.623 596.996 327.358 593.11 329.062C589.224 330.765 585.81 333.386 583.16 336.7C586.861 334.813 591.025 334.026 595.16 334.43C605.52 335.772 615.798 337.678 625.95 340.14C623.863 336.442 620.908 333.307 617.34 331.004C613.773 328.701 609.699 327.3 605.47 326.92Z" fill="black"/>
<path d="M584.14 336.05C576.2 336.49 569.26 342.6 566.49 350.05C563.72 357.5 564.67 365.95 567.66 373.31C570.65 380.67 575.56 387.09 580.75 393.11C583.35 384.11 585.97 375.11 587.12 365.89C588.27 356.67 587.39 344.79 584.14 336.05Z" fill="black"/>
</g>
<g opacity="0.2">
<path d="M678.72 371.43C675.11 363.68 665.83 358.62 657.31 359.31C658.228 359.766 659.027 360.431 659.643 361.25C660.26 362.069 660.676 363.021 660.86 364.03C661.195 366.047 661.376 368.086 661.4 370.13C662.17 379.92 668.47 388.27 674.51 396C678.76 401.43 683.04 406.89 688.12 411.56C687.51 397.64 686.63 382.89 678.72 371.43Z" fill="black"/>
<path d="M657.31 359.42C662.72 355.26 669.7 353.53 676.53 353.42C683.36 353.31 690.1 354.82 696.71 356.5C700.71 357.5 704.71 358.62 708.12 360.92C711.53 363.22 714.23 366.92 714.29 371.01C708.68 364.84 699.64 363.65 691.63 361.32C686.21 359.75 680.97 357.49 675.44 356.32C669.231 355.307 662.861 356.361 657.31 359.32" fill="black"/>
<path d="M658.24 358.32C655.87 355.83 657.18 350.01 659.24 347.27C661.3 344.53 664.59 342.98 667.83 341.83C672.089 340.311 676.508 339.281 681 338.76C680.424 341.584 678.964 344.152 676.83 346.09C674.702 348.001 672.376 349.677 669.89 351.09L658.22 358.31" fill="black"/>
<path d="M636 355C629.23 358 624 363.51 618.93 368.91C626.444 367.081 633.631 364.106 640.24 360.09C642.86 358.49 645.46 356.7 648.46 356.03C651.46 355.36 654.82 356.7 657.32 358.77C653.07 352.51 642.77 352 636 355Z" fill="black"/>
<path d="M632.81 399.29C636.6 390.59 635 380.04 639.81 371.87C643.5 365.61 650.3 361.87 657.07 359.25C658.64 363.96 657.89 369.25 655.9 373.78C653.91 378.31 650.75 382.27 647.42 385.95C642.81 391.04 637.8 395.75 632.8 400.46" fill="black"/>
</g>
<path d="M306.18 218.45H210C208.674 218.45 207.402 218.977 206.464 219.915C205.527 220.852 205 222.124 205 223.45V267.27C205 268.596 205.527 269.868 206.464 270.806C207.402 271.743 208.674 272.27 210 272.27H250.35L258.92 283.27L266.07 272.27H306.19C307.516 272.27 308.788 271.743 309.726 270.806C310.663 269.868 311.19 268.596 311.19 267.27V223.46C311.191 222.802 311.063 222.15 310.811 221.541C310.56 220.933 310.191 220.38 309.726 219.915C309.26 219.449 308.707 219.08 308.099 218.829C307.49 218.577 306.838 218.449 306.18 218.45Z" fill="white"/>
<path d="M306.18 218.45H306.66C307.13 218.485 307.591 218.589 308.03 218.76C308.751 219.033 309.399 219.472 309.92 220.04C310.653 220.828 311.112 221.831 311.23 222.9C311.32 227.67 311.3 234.61 311.33 243.4C311.33 247.79 311.33 252.65 311.33 257.91C311.33 260.54 311.33 263.28 311.33 266.11C311.361 266.838 311.327 267.568 311.23 268.29C311.084 269.033 310.773 269.734 310.32 270.34C309.863 270.968 309.271 271.485 308.587 271.854C307.903 272.223 307.146 272.433 306.37 272.47H266.01L266.21 272.36L259.07 283.36L258.88 283.65L258.67 283.38L250.09 272.38L250.29 272.48H211.49C210.79 272.48 210.13 272.48 209.39 272.48C208.305 272.356 207.285 271.897 206.472 271.168C205.658 270.439 205.092 269.475 204.85 268.41C204.729 267.72 204.685 267.019 204.72 266.32V264.32C204.72 258.887 204.72 253.553 204.72 248.32V232.81C204.72 230.277 204.72 227.777 204.72 225.31V223.46C204.721 222.496 204.987 221.551 205.49 220.729C205.993 219.907 206.712 219.24 207.57 218.8C208.131 218.508 208.741 218.321 209.37 218.25C210 218.19 210.58 218.25 211.18 218.25H221.7H235H258.89L293.48 218.33L302.88 218.38L293.48 218.43L258.89 218.51H235H211.2C210.61 218.51 210 218.51 209.44 218.51C208.87 218.571 208.316 218.741 207.81 219.01C207.034 219.411 206.383 220.018 205.928 220.764C205.473 221.51 205.231 222.366 205.23 223.24V232.59C205.23 237.64 205.23 242.81 205.23 248.06V266.13C205.197 266.799 205.237 267.47 205.35 268.13C205.497 268.765 205.772 269.364 206.159 269.888C206.546 270.413 207.036 270.852 207.6 271.18C208.163 271.512 208.79 271.72 209.44 271.79C210.08 271.85 210.8 271.79 211.44 271.79H250.44L250.51 271.89L259.08 282.89H258.68L265.83 271.89L265.9 271.78H266.03H306.37C307.441 271.733 308.465 271.329 309.28 270.634C310.095 269.938 310.655 268.99 310.87 267.94C310.964 267.241 310.998 266.535 310.97 265.83C310.97 263 310.97 260.26 310.97 257.63C310.97 252.37 310.97 247.51 310.97 243.12C310.97 234.34 311.04 227.37 310.97 222.63C310.871 221.736 310.533 220.885 309.991 220.167C309.449 219.449 308.723 218.89 307.89 218.55C307.328 218.435 306.752 218.401 306.18 218.45Z" fill="#263238"/>
<path d="M232.56 228.03H222.98C222.273 228.03 221.7 228.603 221.7 229.31V236.15C221.7 236.857 222.273 237.43 222.98 237.43H232.56C233.267 237.43 233.84 236.857 233.84 236.15V229.31C233.84 228.603 233.267 228.03 232.56 228.03Z" fill="#FFA62F"/>
<path d="M221.9 228.28L226.52 233.21C226.767 233.545 227.119 233.788 227.52 233.9C227.771 233.938 228.027 233.91 228.264 233.819C228.501 233.728 228.71 233.577 228.87 233.38C229.71 232.52 230.51 231.63 231.33 230.76C232.15 229.89 232.89 229.11 233.66 228.28C233.676 228.255 233.684 228.225 233.681 228.195C233.678 228.166 233.664 228.138 233.643 228.117C233.622 228.096 233.594 228.083 233.565 228.079C233.535 228.076 233.505 228.084 233.48 228.1L229.07 232.8C228.868 233.062 228.632 233.298 228.37 233.5C227.71 233.92 227.15 233.5 226.71 233.03C225.87 232.15 225.04 231.26 224.21 230.37L222.09 228.1C221.98 227.99 221.8 228.16 221.91 228.28H221.9Z" fill="white"/>
<path d="M221.85 237.37L225.56 233.15L226.08 232.56C226.19 232.44 226.01 232.26 225.91 232.38C224.67 233.79 223.43 235.19 222.2 236.6L221.67 237.19C221.57 237.31 221.74 237.49 221.85 237.37Z" fill="white"/>
<path d="M233.65 237L230.18 233L229.68 232.42C229.57 232.29 229.4 232.42 229.5 232.59L232.97 236.59C233.14 236.79 233.31 236.98 233.47 237.18C233.63 237.38 233.76 237.12 233.65 237Z" fill="white"/>
<path d="M242.8 235.93V232.82L241.27 235.38H240.73L239.21 232.88V235.93H238.08V230.74H239.08L241 234L242.91 230.77H243.91V235.96L242.8 235.93Z" fill="#263238"/>
<path d="M249 234.26H246C246.061 234.509 246.211 234.726 246.42 234.874C246.63 235.021 246.885 235.087 247.14 235.06C247.324 235.069 247.508 235.04 247.68 234.974C247.852 234.909 248.008 234.809 248.14 234.68L248.76 235.35C248.548 235.57 248.291 235.742 248.006 235.852C247.721 235.963 247.415 236.01 247.11 235.99C246.823 236.019 246.533 235.988 246.258 235.899C245.983 235.809 245.731 235.663 245.516 235.47C245.301 235.277 245.129 235.041 245.011 234.778C244.893 234.514 244.831 234.229 244.83 233.94C244.821 233.661 244.871 233.383 244.975 233.125C245.08 232.866 245.238 232.632 245.439 232.438C245.639 232.244 245.878 232.094 246.14 231.998C246.402 231.902 246.682 231.862 246.96 231.88C247.236 231.874 247.511 231.925 247.767 232.031C248.022 232.136 248.253 232.294 248.445 232.493C248.636 232.692 248.785 232.929 248.88 233.188C248.976 233.448 249.017 233.724 249 234C249 234 249 234.17 249 234.26ZM246 233.59H248C248 233.325 247.895 233.07 247.707 232.883C247.52 232.695 247.265 232.59 247 232.59C246.735 232.59 246.48 232.695 246.293 232.883C246.105 233.07 246 233.325 246 233.59Z" fill="#263238"/>
<path d="M249.36 235.56L249.75 234.73C250.166 234.983 250.643 235.117 251.13 235.12C251.67 235.12 251.87 234.97 251.87 234.75C251.87 234.1 249.46 234.75 249.46 233.17C249.46 232.42 250.14 231.88 251.3 231.88C251.834 231.872 252.362 231.992 252.84 232.23L252.45 233.05C252.099 232.854 251.702 232.754 251.3 232.76C250.78 232.76 250.56 232.92 250.56 233.13C250.56 233.81 252.97 233.13 252.97 234.72C252.97 235.46 252.28 235.99 251.09 235.99C250.485 236.005 249.887 235.857 249.36 235.56Z" fill="#263238"/>
<path d="M253.3 235.56L253.68 234.73C254.1 234.982 254.58 235.116 255.07 235.12C255.6 235.12 255.8 234.97 255.8 234.75C255.8 234.1 253.39 234.75 253.39 233.17C253.39 232.42 254.07 231.88 255.24 231.88C255.771 231.87 256.296 231.991 256.77 232.23L256.39 233.05C256.038 232.855 255.642 232.755 255.24 232.76C254.72 232.76 254.5 232.92 254.5 233.13C254.5 233.81 256.91 233.13 256.91 234.72C256.91 235.46 256.22 235.99 255.02 235.99C254.418 236.004 253.824 235.855 253.3 235.56Z" fill="#263238"/>
<path d="M261.15 233.65V235.93H260.06V235.43C259.928 235.625 259.746 235.78 259.533 235.879C259.32 235.977 259.084 236.016 258.85 235.99C257.91 235.99 257.36 235.47 257.36 234.78C257.36 234.09 257.85 233.59 259.07 233.59H260C260 233.09 259.7 232.8 259.08 232.8C258.667 232.797 258.264 232.927 257.93 233.17L257.52 232.36C258.033 232.032 258.632 231.865 259.24 231.88C260.44 231.88 261.15 232.45 261.15 233.65ZM259.99 234.65V234.24H259.2C258.66 234.24 258.48 234.44 258.48 234.71C258.48 234.98 258.73 235.19 259.14 235.19C259.32 235.206 259.5 235.164 259.655 235.071C259.81 234.977 259.931 234.837 260 234.67L259.99 234.65Z" fill="#263238"/>
<path d="M266.35 231.94V235.26C266.378 235.558 266.338 235.858 266.234 236.139C266.131 236.42 265.965 236.674 265.75 236.882C265.535 237.09 265.276 237.248 264.992 237.342C264.708 237.437 264.407 237.467 264.11 237.43C263.402 237.465 262.701 237.272 262.11 236.88L262.57 236.05C262.981 236.344 263.475 236.501 263.98 236.5C264.8 236.5 265.15 236.13 265.15 235.41V235.24C264.989 235.41 264.793 235.543 264.575 235.629C264.358 235.715 264.124 235.753 263.89 235.74C263.378 235.74 262.887 235.537 262.525 235.175C262.163 234.813 261.96 234.322 261.96 233.81C261.96 233.298 262.163 232.807 262.525 232.445C262.887 232.083 263.378 231.88 263.89 231.88C264.139 231.866 264.388 231.911 264.617 232.009C264.846 232.108 265.049 232.259 265.21 232.45V231.94H266.35ZM265.21 233.81C265.22 233.598 265.165 233.389 265.054 233.209C264.943 233.028 264.779 232.886 264.585 232.801C264.392 232.715 264.176 232.69 263.968 232.729C263.76 232.768 263.568 232.869 263.419 233.019C263.269 233.168 263.168 233.36 263.129 233.568C263.09 233.777 263.115 233.992 263.201 234.185C263.286 234.379 263.428 234.543 263.609 234.654C263.789 234.765 263.998 234.82 264.21 234.81C264.475 234.81 264.73 234.705 264.917 234.517C265.105 234.33 265.21 234.075 265.21 233.81Z" fill="#263238"/>
<path d="M271.31 234.26H268.31C268.371 234.509 268.521 234.727 268.73 234.874C268.94 235.021 269.195 235.087 269.45 235.06C269.634 235.069 269.818 235.041 269.99 234.975C270.162 234.91 270.319 234.809 270.45 234.68L271.07 235.35C270.858 235.57 270.601 235.742 270.316 235.852C270.031 235.963 269.725 236.01 269.42 235.99C269.134 236.018 268.844 235.986 268.571 235.895C268.298 235.805 268.046 235.659 267.833 235.466C267.619 235.273 267.448 235.038 267.33 234.775C267.213 234.512 267.151 234.228 267.15 233.94C267.141 233.662 267.19 233.385 267.295 233.127C267.399 232.869 267.556 232.636 267.755 232.442C267.955 232.248 268.193 232.098 268.453 232.001C268.714 231.905 268.992 231.863 269.27 231.88C269.545 231.869 269.82 231.915 270.077 232.015C270.333 232.115 270.567 232.266 270.762 232.461C270.957 232.655 271.11 232.888 271.212 233.144C271.313 233.4 271.36 233.675 271.35 233.95C271.33 234 271.32 234.17 271.31 234.26ZM268.31 233.59H270.31C270.31 233.325 270.205 233.071 270.017 232.883C269.83 232.695 269.575 232.59 269.31 232.59C269.045 232.59 268.79 232.695 268.603 232.883C268.415 233.071 268.31 233.325 268.31 233.59Z" fill="#263238"/>
<path d="M271.71 235.56L272.1 234.73C272.52 234.983 273 235.118 273.49 235.12C274.02 235.12 274.22 234.97 274.22 234.75C274.22 234.1 271.81 234.75 271.81 233.17C271.81 232.42 272.49 231.88 273.66 231.88C274.191 231.872 274.716 231.992 275.19 232.23L274.81 233.05C274.458 232.856 274.062 232.756 273.66 232.76C273.14 232.76 272.91 232.92 272.91 233.13C272.91 233.81 275.32 233.13 275.32 234.72C275.32 235.46 274.64 235.99 273.44 235.99C272.835 236.004 272.238 235.855 271.71 235.56Z" fill="#263238"/>
<path d="M277.89 233.34C277.858 232.773 277.997 232.209 278.289 231.721C278.581 231.234 279.012 230.845 279.528 230.605C280.043 230.365 280.618 230.286 281.179 230.377C281.74 230.467 282.261 230.725 282.675 231.115C283.088 231.505 283.375 232.01 283.498 232.565C283.621 233.119 283.575 233.698 283.366 234.227C283.156 234.755 282.793 235.208 282.323 235.528C281.853 235.848 281.298 236.019 280.73 236.02C280.365 236.04 280 235.986 279.657 235.861C279.314 235.735 279 235.541 278.734 235.291C278.468 235.04 278.256 234.738 278.111 234.402C277.966 234.067 277.891 233.705 277.89 233.34ZM282.35 233.34C282.344 233.019 282.243 232.706 282.06 232.442C281.877 232.178 281.62 231.973 281.321 231.855C281.022 231.736 280.695 231.709 280.38 231.776C280.066 231.843 279.778 232.002 279.554 232.232C279.329 232.462 279.178 232.753 279.118 233.069C279.059 233.385 279.094 233.712 279.22 234.008C279.346 234.303 279.556 234.556 279.825 234.732C280.094 234.909 280.408 235.002 280.73 235C280.947 235.004 281.163 234.964 281.364 234.882C281.566 234.799 281.748 234.676 281.899 234.521C282.051 234.365 282.17 234.18 282.247 233.977C282.325 233.774 282.36 233.557 282.35 233.34Z" fill="#263238"/>
<path d="M285.47 231.72H283.81V230.72H288.33V231.72H286.67V235.93H285.47V231.72Z" fill="#263238"/>
<path d="M293.48 232.62C293.48 233.78 292.61 234.5 291.22 234.5H290.22V235.93H289V230.74H291.24C292.61 230.74 293.48 231.46 293.48 232.62ZM292.26 232.62C292.26 232.05 291.89 231.72 291.16 231.72H290.16V233.52H291.16C291.89 233.52 292.26 233.19 292.26 232.62Z" fill="#263238"/>
<path d="M221 251.11C221 246.21 223.72 243.43 227.36 243.43C231 243.43 233.73 246.21 233.73 251.11C233.73 256.01 231.03 258.79 227.36 258.79C223.69 258.79 221 256 221 251.11ZM230.27 251.11C230.27 247.74 229.08 246.34 227.36 246.34C225.64 246.34 224.48 247.74 224.48 251.11C224.48 254.48 225.67 255.88 227.36 255.88C229.05 255.88 230.28 254.48 230.28 251.11H230.27Z" fill="#263238"/>
<path d="M247.84 254.23C247.84 257.03 245.34 258.79 241.57 258.79C237.8 258.79 235.33 257.03 235.33 254.23C235.322 253.491 235.53 252.765 235.93 252.143C236.33 251.521 236.904 251.029 237.58 250.73C237.054 250.426 236.618 249.989 236.316 249.462C236.014 248.935 235.856 248.337 235.86 247.73C235.86 245.12 238.19 243.48 241.57 243.48C244.95 243.48 247.31 245.12 247.31 247.73C247.312 248.339 247.151 248.938 246.846 249.465C246.54 249.993 246.1 250.429 245.57 250.73C246.252 251.023 246.832 251.512 247.237 252.135C247.641 252.758 247.851 253.487 247.84 254.23ZM244.37 254.12C244.37 252.81 243.28 252 241.57 252C239.86 252 238.81 252.81 238.81 254.12C238.81 255.43 239.87 256.27 241.57 256.27C243.27 256.27 244.37 255.44 244.37 254.12ZM239.28 247.82C239.28 248.95 240.17 249.65 241.57 249.65C242.97 249.65 243.9 248.95 243.9 247.82C243.9 246.69 243 246 241.57 246C240.14 246 239.28 246.66 239.28 247.82Z" fill="#263238"/>
<path d="M261.85 254.23C261.85 257.03 259.34 258.79 255.57 258.79C251.8 258.79 249.33 257.03 249.33 254.23C249.322 253.491 249.53 252.765 249.93 252.143C250.33 251.521 250.904 251.029 251.58 250.73C251.054 250.426 250.618 249.989 250.316 249.462C250.014 248.935 249.856 248.337 249.86 247.73C249.86 245.12 252.2 243.48 255.57 243.48C258.94 243.48 261.32 245.12 261.32 247.73C261.32 248.339 261.159 248.937 260.853 249.464C260.548 249.991 260.108 250.427 259.58 250.73C260.262 251.024 260.841 251.514 261.245 252.136C261.649 252.759 261.859 253.488 261.85 254.23ZM258.37 254.12C258.37 252.81 257.29 252 255.57 252C253.85 252 252.81 252.81 252.81 254.12C252.81 255.43 253.87 256.27 255.57 256.27C257.27 256.27 258.37 255.44 258.37 254.12ZM253.28 247.82C253.28 248.95 254.17 249.65 255.57 249.65C256.97 249.65 257.9 248.95 257.9 247.82C257.9 246.69 257 246 255.57 246C254.14 246 253.28 246.66 253.28 247.82Z" fill="#263238"/>
<path d="M269.15 243.69V258.54H265.71V246.45H262.71V243.69H269.15Z" fill="#263238"/>
<path d="M282.83 255.74V258.54H271.61V256.31L277.33 250.9C278.65 249.65 278.88 248.9 278.88 248.16C278.88 247 278.08 246.32 276.51 246.32C275.915 246.296 275.323 246.418 274.786 246.676C274.249 246.934 273.783 247.32 273.43 247.8L270.93 246.19C271.61 245.28 272.505 244.552 273.534 244.07C274.563 243.589 275.695 243.369 276.83 243.43C280.13 243.43 282.34 245.13 282.34 247.82C282.34 249.27 281.94 250.58 279.86 252.51L276.44 255.74H282.83Z" fill="#263238"/>
<path d="M295.22 254C295.22 256.5 293.29 258.79 289.07 258.79C287.065 258.827 285.093 258.274 283.4 257.2L284.74 254.57C285.976 255.454 287.461 255.923 288.98 255.91C290.7 255.91 291.76 255.21 291.76 254C291.76 252.79 290.93 252.17 288.98 252.17H287.41V249.9L290.47 246.45H284.15V243.69H294.54V245.92L291.19 249.73C293.86 250.16 295.22 251.81 295.22 254Z" fill="#263238"/>
</svg>
