<svg width="24" height="24" viewBox="0 0 24 24" fill="none" xmlns="http://www.w3.org/2000/svg">
<path d="M10 22C11.1046 22 12 21.1046 12 20C12 18.8954 11.1046 18 10 18C8.89543 18 8 18.8954 8 20C8 21.1046 8.89543 22 10 22Z" fill="#FFA62F"/>
<path d="M16 22C17.1046 22 18 21.1046 18 20C18 18.8954 17.1046 18 16 18C14.8954 18 14 18.8954 14 20C14 21.1046 14.8954 22 16 22Z" fill="#FFA62F"/>
<path d="M21.6 7.8C21.2 7.3 20.6 7 20 7H8.6L8 3.6C7.8 2.7 7 2 6 2H4C2.9 2 2 2.9 2 4C2 5.1 2.9 6 4 6H4.3L6 14.4C6.2 15.4 7 16 8 16H18C18.9 16 19.6 15.4 19.9 14.6L21.9 9.6C22.1 9 22 8.4 21.6 7.8Z" fill="#FFA62F"/>
</svg>
