<svg width="32" height="34" viewBox="0 0 32 34" fill="none" xmlns="http://www.w3.org/2000/svg">
<g clip-path="url(#clip0_235_5985)">
<path fill-rule="evenodd" clip-rule="evenodd" d="M4.47017 0C5.93485 0 7.13301 1.19808 7.13301 2.66234V8.63752C6.34033 8.24185 5.44607 8.01883 4.49978 8.01883C3.52997 8.01883 2.61468 8.25264 1.80733 8.66685V2.66234C1.80733 1.19808 3.00548 0 4.47017 0ZM27.5002 9.42415C29.9854 9.42415 32 11.4379 32 13.9223C32 16.4068 29.9854 18.4208 27.5002 18.4208C25.0151 18.4208 23.0007 16.407 23.0007 13.9223C23.001 11.4379 25.0153 9.42415 27.5002 9.42415ZM27.4709 0C28.9356 0 30.1337 1.19808 30.1337 2.66234V8.63752C29.341 8.24185 28.4468 8.01883 27.5002 8.01883C26.5304 8.01883 25.6151 8.25264 24.8078 8.66685V2.66234C24.808 1.19808 26.0062 0 27.4709 0ZM30.1337 19.2072V31.3379C30.1337 32.8019 28.9356 34 27.4709 34C26.0062 34 24.808 32.8019 24.808 31.3379V19.1781C25.6154 19.5921 26.5307 19.8259 27.5005 19.8259C28.4468 19.8256 29.341 19.6028 30.1337 19.2072ZM15.9469 25.9803C18.432 25.9803 20.4464 23.9666 20.4464 21.4821C20.4464 18.9977 18.432 16.9837 15.9469 16.9837C13.4617 16.9837 11.4474 18.9974 11.4474 21.4821C11.4474 23.9663 13.4617 25.9803 15.9469 25.9803ZM15.9172 34C17.3819 34 18.5804 32.8016 18.5804 31.3379V26.7531C17.7877 27.1488 16.9051 27.3718 15.9469 27.3718C14.9887 27.3718 14.0618 27.1377 13.2544 26.7235V31.3377C13.2547 32.8019 14.4528 34 15.9172 34ZM18.5804 16.1835V2.66234C18.5804 1.19836 17.3819 0 15.9172 0C14.4526 0 13.2544 1.19808 13.2544 2.66234V16.2131C14.0618 15.7989 14.9887 15.5648 15.9469 15.5648C16.9051 15.5648 17.7877 15.7881 18.5804 16.1835ZM4.49951 9.42415C6.98466 9.42415 8.99901 11.4379 8.99901 13.9223C8.99901 16.4068 6.98466 18.4208 4.49951 18.4208C2.01463 18.4205 0 16.4068 0 13.9221C0 11.4379 2.01463 9.42415 4.49951 9.42415ZM7.13273 19.2072V31.3379C7.13273 32.8019 5.93458 34 4.46989 34C3.00521 34 1.80705 32.8019 1.80705 31.3379V19.1781C2.6144 19.5921 3.52969 19.8259 4.49951 19.8259C5.44607 19.8256 6.34005 19.6028 7.13273 19.2072Z" fill="#616161"/>
</g>
<defs>
<clipPath id="clip0_235_5985">
<rect width="32" height="34" fill="white"/>
</clipPath>
</defs>
</svg>
