<svg width="45" height="45" viewBox="0 0 45 45" fill="none" xmlns="http://www.w3.org/2000/svg">
<path d="M5.11363 27.6136C3.98863 27.6136 3.06818 26.6932 3.06818 25.5682C3.06818 24.4432 3.98863 23.5227 5.11363 23.5227H18.4091C19.5341 23.5227 20.4545 24.4432 20.4545 25.5682C20.4545 26.6932 19.5341 27.6136 18.4091 27.6136H5.11363ZM22.5 27.6136C21.375 27.6136 20.4545 26.6932 20.4545 25.5682C20.4545 24.4432 21.375 23.5227 22.5 23.5227H31.7045C32.8295 23.5227 33.75 24.4432 33.75 25.5682C33.75 26.6932 32.8295 27.6136 31.7045 27.6136H22.5ZM35.7954 27.6136C34.6705 27.6136 33.75 26.6932 33.75 25.5682C33.75 24.4432 34.6705 23.5227 35.7954 23.5227H39.8864C41.0114 23.5227 41.9318 24.4432 41.9318 25.5682C41.9318 26.6932 41.0114 27.6136 39.8864 27.6136H35.7954Z" fill="#DF3540"/>
<path d="M8.18181 42.9545C5.31818 42.9545 3.06818 40.7045 3.06818 37.8409C3.06818 36.7159 3.98863 35.7954 5.11363 35.7954H39.8864C41.0114 35.7954 41.9318 36.7159 41.9318 37.8409C41.9318 40.7045 39.6818 42.9545 36.8182 42.9545H8.18181ZM5.11363 16.3636C3.98863 16.3636 3.06818 15.4432 3.06818 14.3182C3.06818 7.56817 8.5909 2.04544 15.3409 2.04544H29.6591C36.4091 2.04544 41.9318 7.56817 41.9318 14.3182C41.9318 15.4432 41.0114 16.3636 39.8864 16.3636H5.11363Z" fill="#F6B545"/>
<path d="M39.8864 17.3864H5.11364C3.375 17.3864 2.04546 16.0568 2.04546 14.3182C2.04546 6.95455 7.97728 1.02274 15.3409 1.02274H29.6591C37.0227 1.02274 42.9545 6.95455 42.9545 14.3182C42.9545 16.0568 41.625 17.3864 39.8864 17.3864ZM15.3409 3.06819C9.10228 3.06819 4.09091 8.07955 4.09091 14.3182C4.09091 14.9318 4.5 15.3409 5.11364 15.3409H39.8864C40.5 15.3409 40.9091 14.9318 40.9091 14.3182C40.9091 8.07955 35.8977 3.06819 29.6591 3.06819H15.3409Z" fill="#014463"/>
<path d="M3.57954 35.7955C2.14772 35.7955 1.02272 34.6705 1.02272 33.2386C1.02272 31.8068 2.14772 30.6818 3.57954 30.6818H41.4204C42.8523 30.6818 43.9773 31.8068 43.9773 33.2386C43.9773 34.6705 42.8523 35.7955 41.4204 35.7955H3.57954Z" fill="#F04B4D"/>
<path d="M2.55681 30.6818C1.73863 30.6818 1.02272 29.9659 1.02272 29.1477C1.02272 28.3296 1.73863 27.6136 2.55681 27.6136H42.4432C43.2614 27.6136 43.9773 28.3296 43.9773 29.1477C43.9773 29.9659 43.2614 30.6818 42.4432 30.6818H2.55681Z" fill="#3BB54A"/>
<path d="M45 29.1477C45 27.8182 43.9773 26.7955 42.75 26.5909C42.8523 26.2841 42.9545 25.875 42.9545 25.5682C42.9545 23.8295 41.625 22.5 39.8864 22.5H35.7955C34.9773 22.5 34.2614 22.8068 33.75 23.3182C33.2386 22.8068 32.5227 22.5 31.7045 22.5H22.5C21.6818 22.5 20.9659 22.8068 20.4545 23.3182C19.9432 22.8068 19.2273 22.5 18.4091 22.5H5.11364C3.375 22.5 2.04545 23.8295 2.04545 25.5682C2.04545 25.9773 2.14773 26.2841 2.25 26.5909C1.02273 26.7955 0 27.8182 0 29.1477C0 29.8636 0.306818 30.5795 0.818182 30.9886C0.306818 31.6023 0 32.4205 0 33.2386C0 35.1818 1.63636 36.8182 3.57955 36.8182H41.4205C43.3636 36.8182 45 35.1818 45 33.2386C45 32.4205 44.6932 31.6023 44.1818 30.9886C44.6932 30.5795 45 29.8636 45 29.1477ZM35.7955 24.5455H39.8864C40.5 24.5455 40.9091 24.9545 40.9091 25.5682C40.9091 26.1818 40.5 26.5909 39.8864 26.5909H35.7955C35.1818 26.5909 34.7727 26.1818 34.7727 25.5682C34.7727 24.9545 35.1818 24.5455 35.7955 24.5455ZM22.5 24.5455H31.7045C32.3182 24.5455 32.7273 24.9545 32.7273 25.5682C32.7273 26.1818 32.3182 26.5909 31.7045 26.5909H22.5C21.8864 26.5909 21.4773 26.1818 21.4773 25.5682C21.4773 24.9545 21.8864 24.5455 22.5 24.5455ZM5.11364 24.5455H18.4091C19.0227 24.5455 19.4318 24.9545 19.4318 25.5682C19.4318 26.1818 19.0227 26.5909 18.4091 26.5909H5.11364C4.5 26.5909 4.09091 26.1818 4.09091 25.5682C4.09091 24.9545 4.5 24.5455 5.11364 24.5455ZM2.55682 28.6364H42.4432C42.75 28.6364 42.9545 28.8409 42.9545 29.1477C42.9545 29.4545 42.75 29.6591 42.4432 29.6591H2.55682C2.25 29.6591 2.04545 29.4545 2.04545 29.1477C2.04545 28.8409 2.25 28.6364 2.55682 28.6364ZM41.4205 34.7727H3.57955C2.76136 34.7727 2.04545 34.0568 2.04545 33.2386C2.04545 32.4205 2.76136 31.7045 3.57955 31.7045H41.4205C42.2386 31.7045 42.9545 32.4205 42.9545 33.2386C42.9545 34.0568 42.2386 34.7727 41.4205 34.7727Z" fill="#014463"/>
<path d="M2.55681 19.4318C1.73863 19.4318 1.02272 18.7159 1.02272 17.8977C1.02272 17.0796 1.73863 16.3636 2.55681 16.3636H42.4432C43.2614 16.3636 43.9773 17.0796 43.9773 17.8977C43.9773 18.7159 43.2614 19.4318 42.4432 19.4318H2.55681Z" fill="#3BB54A"/>
<path d="M42.4432 28.6364H30.4773C30.5795 28.6364 30.6818 28.8409 30.6818 29.1477C30.6818 29.4545 30.5795 29.6591 30.4773 29.6591H42.4432C42.75 29.6591 42.9545 29.4545 42.9545 29.1477C42.9545 28.8409 42.75 28.6364 42.4432 28.6364ZM42.4432 17.3864H30.4773C30.5795 17.3864 30.6818 17.5909 30.6818 17.8977C30.6818 18.2045 30.5795 18.4091 30.4773 18.4091H42.4432C42.75 18.4091 42.9545 18.2045 42.9545 17.8977C42.9545 17.5909 42.75 17.3864 42.4432 17.3864Z" fill="#1E9647"/>
<path d="M13.8068 27.6136C13.3977 27.6136 12.9886 27.4091 12.6818 27.1023C12.375 26.7955 12.2727 26.4886 12.2727 26.0796V24.5455C12.2727 23.9318 11.8636 23.5227 11.25 23.5227H4.09091C2.96591 23.5227 2.04546 22.6023 2.04546 21.4773C2.04546 20.3523 2.96591 19.4318 4.09091 19.4318H40.9091C42.0341 19.4318 42.9545 20.3523 42.9545 21.4773C42.9545 22.6023 42.0341 23.5227 40.9091 23.5227H20.8636C19.9432 23.5227 19.0227 23.8296 18.3068 24.4432L14.7273 27.3068C14.4205 27.5114 14.1136 27.6136 13.8068 27.6136Z" fill="#FFCB5B"/>
<path d="M45 17.8977C45 16.4659 43.875 15.3409 42.4432 15.3409H2.55682C1.125 15.3409 0 16.4659 0 17.8977C0 18.8182 0.511364 19.7386 1.32955 20.1477C1.125 20.5568 1.02273 20.9659 1.02273 21.4773C1.02273 23.2159 2.35227 24.5455 4.09091 24.5455H11.25V26.0795C11.25 27.5114 12.375 28.6364 13.8068 28.6364C14.4205 28.6364 14.9318 28.4318 15.4432 28.125L19.0227 25.2614C19.5341 24.8523 20.25 24.5455 20.9659 24.5455H40.9091C42.6477 24.5455 43.9773 23.2159 43.9773 21.4773C43.9773 20.9659 43.875 20.5568 43.6705 20.1477C44.4886 19.7386 45 18.8182 45 17.8977ZM2.55682 17.3864H42.4432C42.75 17.3864 42.9545 17.5909 42.9545 17.8977C42.9545 18.2045 42.75 18.4091 42.4432 18.4091H2.55682C2.25 18.4091 2.04545 18.2045 2.04545 17.8977C2.04545 17.5909 2.25 17.3864 2.55682 17.3864ZM40.9091 22.5H20.8636C19.7386 22.5 18.6136 22.9091 17.6932 23.625L14.1136 26.4886C13.8068 26.6932 13.2955 26.4886 13.2955 26.0795V24.5455C13.2955 23.4205 12.375 22.5 11.25 22.5H4.09091C3.47727 22.5 3.06818 22.0909 3.06818 21.4773C3.06818 20.8636 3.47727 20.4545 4.09091 20.4545H40.9091C41.5227 20.4545 41.9318 20.8636 41.9318 21.4773C41.9318 22.0909 41.5227 22.5 40.9091 22.5Z" fill="#004463"/>
<path d="M40.9091 20.4546H30.2727C30.4773 20.4546 30.6818 20.8636 30.6818 21.4773H20.5568C19.4318 21.4773 18.3068 21.8864 17.3864 22.6023L13.2955 26.0796C13.2955 26.4886 13.8068 26.6932 14.1136 26.4886L17.6932 23.625C18.6136 22.9091 19.7386 22.5 20.8636 22.5H40.9091C41.5227 22.5 41.9318 22.0909 41.9318 21.4773C41.9318 20.8636 41.5227 20.4546 40.9091 20.4546Z" fill="#F4A634"/>
<path d="M10.2273 21.4773H3.06818C3.06818 22.0909 3.47727 22.5 4.0909 22.5H11.25C11.5568 22.5 11.8636 22.6023 12.0682 22.7045C11.7614 21.9886 11.0454 21.4773 10.2273 21.4773Z" fill="#F6B545"/>
<path d="M18.4091 7.15908C18.4091 7.43032 18.5168 7.69046 18.7086 7.88226C18.9004 8.07406 19.1606 8.18181 19.4318 8.18181C19.7031 8.18181 19.9632 8.07406 20.155 7.88226C20.3468 7.69046 20.4545 7.43032 20.4545 7.15908C20.4545 6.88784 20.3468 6.6277 20.155 6.4359C19.9632 6.2441 19.7031 6.13635 19.4318 6.13635C19.1606 6.13635 18.9004 6.2441 18.7086 6.4359C18.5168 6.6277 18.4091 6.88784 18.4091 7.15908Z" fill="#E58824"/>
<path d="M12.2727 7.15908C12.2727 7.43032 12.3805 7.69046 12.5723 7.88226C12.7641 8.07406 13.0242 8.18181 13.2955 8.18181C13.5667 8.18181 13.8268 8.07406 14.0186 7.88226C14.2104 7.69046 14.3182 7.43032 14.3182 7.15908C14.3182 6.88784 14.2104 6.6277 14.0186 6.4359C13.8268 6.2441 13.5667 6.13635 13.2955 6.13635C13.0242 6.13635 12.7641 6.2441 12.5723 6.4359C12.3805 6.6277 12.2727 6.88784 12.2727 7.15908Z" fill="#E58824"/>
<path d="M9.20454 11.25C9.20454 11.5212 9.3123 11.7814 9.50409 11.9732C9.69589 12.165 9.95603 12.2727 10.2273 12.2727C10.4985 12.2727 10.7587 12.165 10.9504 11.9732C11.1422 11.7814 11.25 11.5212 11.25 11.25C11.25 10.9787 11.1422 10.7186 10.9504 10.5268C10.7587 10.335 10.4985 10.2273 10.2273 10.2273C9.95603 10.2273 9.69589 10.335 9.50409 10.5268C9.3123 10.7186 9.20454 10.9787 9.20454 11.25Z" fill="#E58824"/>
<path d="M15.3409 11.25C15.3409 11.5212 15.4487 11.7814 15.6405 11.9732C15.8323 12.165 16.0924 12.2727 16.3636 12.2727C16.6349 12.2727 16.895 12.165 17.0868 11.9732C17.2786 11.7814 17.3864 11.5212 17.3864 11.25C17.3864 10.9787 17.2786 10.7186 17.0868 10.5268C16.895 10.335 16.6349 10.2273 16.3636 10.2273C16.0924 10.2273 15.8323 10.335 15.6405 10.5268C15.4487 10.7186 15.3409 10.9787 15.3409 11.25Z" fill="#E58824"/>
<path d="M24.5455 7.15908C24.5455 7.43032 24.6532 7.69046 24.845 7.88226C25.0368 8.07406 25.2969 8.18181 25.5682 8.18181C25.8394 8.18181 26.0996 8.07406 26.2914 7.88226C26.4832 7.69046 26.5909 7.43032 26.5909 7.15908C26.5909 6.88784 26.4832 6.6277 26.2914 6.4359C26.0996 6.2441 25.8394 6.13635 25.5682 6.13635C25.2969 6.13635 25.0368 6.2441 24.845 6.4359C24.6532 6.6277 24.5455 6.88784 24.5455 7.15908Z" fill="#E58824"/>
<path d="M21.4773 11.25C21.4773 11.5212 21.585 11.7814 21.7768 11.9732C21.9686 12.165 22.2288 12.2727 22.5 12.2727C22.7712 12.2727 23.0314 12.165 23.2232 11.9732C23.415 11.7814 23.5227 11.5212 23.5227 11.25C23.5227 10.9787 23.415 10.7186 23.2232 10.5268C23.0314 10.335 22.7712 10.2273 22.5 10.2273C22.2288 10.2273 21.9686 10.335 21.7768 10.5268C21.585 10.7186 21.4773 10.9787 21.4773 11.25Z" fill="#E58824"/>
<path d="M41.4204 31.7045H30.9886C31.0909 31.7045 31.0909 31.8068 31.1932 31.8068C31.7045 32.625 30.9886 33.75 30.0682 33.75H2.14772C2.35227 34.3636 2.9659 34.7727 3.57954 34.7727H41.4204C42.2386 34.7727 42.9545 34.0568 42.9545 33.2386C42.9545 32.4204 42.2386 31.7045 41.4204 31.7045Z" fill="#DE333F"/>
<path d="M39.8864 36.8182H5.11363C5.72727 37.4318 6.64772 37.8409 7.56818 37.8409H28.6364C30.5795 37.8409 30.6818 40.9091 28.7386 40.9091H6.13636C5.93181 40.9091 5.625 40.9091 5.42045 40.8068C6.13636 41.5227 7.15909 41.9318 8.18181 41.9318H36.8182C39.0682 41.9318 40.9091 40.0909 40.9091 37.8409C40.9091 37.6364 40.8068 37.4318 40.7045 37.2273C40.5 37.0227 40.1932 36.8182 39.8864 36.8182Z" fill="#F19A22"/>
<path d="M36.8182 43.9773H8.18182C4.80682 43.9773 2.04546 41.2159 2.04546 37.8409C2.04546 36.1023 3.375 34.7727 5.11364 34.7727H39.8864C41.625 34.7727 42.9545 36.1023 42.9545 37.8409C42.9545 41.2159 40.1932 43.9773 36.8182 43.9773ZM5.11364 36.8182C4.5 36.8182 4.09091 37.2273 4.09091 37.8409C4.09091 40.0909 5.93182 41.9318 8.18182 41.9318H36.8182C39.0682 41.9318 40.9091 40.0909 40.9091 37.8409C40.9091 37.2273 40.5 36.8182 39.8864 36.8182H5.11364Z" fill="#014463"/>
<path d="M34.3636 4.09091H30.4773C29.0455 4.09091 28.0227 5.42046 28.5341 6.75C29.0455 8.28409 29.4546 10.125 29.5568 12.1705C29.6591 13.2955 28.7386 14.3182 27.5114 14.3182H4.09091C4.09091 14.9318 4.5 15.3409 5.11364 15.3409H39.8864C40.5 15.3409 40.9091 14.8295 40.9091 14.3182C40.9091 9.81818 38.1477 5.82955 34.3636 4.09091Z" fill="#F19A22"/>
<path d="M30.6818 7.15908C30.6818 7.43032 30.7896 7.69046 30.9814 7.88226C31.1732 8.07406 31.4333 8.18181 31.7045 8.18181C31.9758 8.18181 32.2359 8.07406 32.4277 7.88226C32.6195 7.69046 32.7273 7.43032 32.7273 7.15908C32.7273 6.88784 32.6195 6.6277 32.4277 6.4359C32.2359 6.2441 31.9758 6.13635 31.7045 6.13635C31.4333 6.13635 31.1732 6.2441 30.9814 6.4359C30.7896 6.6277 30.6818 6.88784 30.6818 7.15908Z" fill="#E58824"/>
<path d="M33.75 11.25C33.75 11.5212 33.8578 11.7814 34.0495 11.9732C34.2413 12.165 34.5015 12.2727 34.7727 12.2727C35.044 12.2727 35.3041 12.165 35.4959 11.9732C35.6877 11.7814 35.7955 11.5212 35.7955 11.25C35.7955 10.9787 35.6877 10.7186 35.4959 10.5268C35.3041 10.335 35.044 10.2273 34.7727 10.2273C34.5015 10.2273 34.2413 10.335 34.0495 10.5268C33.8578 10.7186 33.75 10.9787 33.75 11.25Z" fill="#E58824"/>
<path d="M27.6136 11.25C27.6136 11.5212 27.7214 11.7814 27.9132 11.9732C28.105 12.165 28.3651 12.2727 28.6364 12.2727C28.9076 12.2727 29.1677 12.165 29.3595 11.9732C29.5513 11.7814 29.6591 11.5212 29.6591 11.25C29.6591 10.9787 29.5513 10.7186 29.3595 10.5268C29.1677 10.335 28.9076 10.2273 28.6364 10.2273C28.3651 10.2273 28.105 10.335 27.9132 10.5268C27.7214 10.7186 27.6136 10.9787 27.6136 11.25Z" fill="#E58824"/>
</svg>
