<svg width="39" height="42" viewBox="0 0 39 42" fill="none" xmlns="http://www.w3.org/2000/svg">
<g clip-path="url(#clip0_235_5990)">
<path d="M26.2903 22.1927C26.9984 22.1927 27.6385 22.4798 28.1015 22.9446C28.5646 23.4095 28.8506 24.0521 28.8506 24.763C28.8506 25.4739 28.5646 26.1165 28.1015 26.5814C27.6385 27.0462 26.9984 27.3333 26.2903 27.3333C25.5821 27.3333 24.942 27.0462 24.479 26.5814C24.016 26.1165 23.73 25.4739 23.73 24.763C23.73 24.0521 24.016 23.4095 24.479 22.9446C24.942 22.4832 25.5855 22.1927 26.2903 22.1927ZM18.2588 23.4505L29.0174 17.5374L29.0276 17.534L31.8364 15.9925C32.102 15.8455 32.4356 15.9446 32.582 16.2147C33.6885 18.2415 34.3695 20.4461 34.6112 22.6985C34.8529 24.9339 34.6623 27.2171 34.029 29.4217C34.0222 29.4559 34.012 29.4866 34.0018 29.5208C32.6467 34.1146 29.5757 37.7274 25.6911 39.8636C21.8098 41.9964 17.1216 42.6492 12.539 41.3162C12.5049 41.3094 12.4709 41.2991 12.4403 41.2855C7.86443 39.9251 4.26574 36.8421 2.13785 32.9422C0.00314892 29.0286 -0.64373 24.3016 0.701097 19.6839V19.6805C2.04592 15.0628 5.13052 11.4329 9.02541 9.28985C12.9203 7.1502 17.6289 6.50079 22.2286 7.85089C22.5214 7.93634 22.6882 8.24054 22.6031 8.53448L18.2588 23.4505ZM28.3535 2.77179C29.9639 3.41095 31.4347 4.27227 32.7386 5.30792C34.1345 6.41534 35.3364 7.72784 36.3203 9.18048L37.6958 8.42511C36.7084 6.75372 35.4249 5.25323 33.8928 4.01593C32.4118 2.81964 30.6993 1.86944 28.7995 1.24054L28.3535 2.77179ZM35.3534 9.7171C34.4444 8.38751 33.3379 7.19122 32.0577 6.17608C30.8627 5.22589 29.5179 4.43292 28.0437 3.83819L24.6084 15.6199L35.3534 9.7171ZM28.5816 0.0203214C30.8389 0.683407 32.8578 1.7669 34.5805 3.15802C36.3714 4.60382 37.8422 6.38458 38.9317 8.37726C39.0781 8.64386 38.9793 8.97882 38.7104 9.12579L23.9717 17.2264C23.7062 17.3734 23.3725 17.2742 23.2261 17.0042C23.1546 16.8709 23.141 16.7205 23.1818 16.5872L27.9007 0.399716C27.9824 0.105771 28.2888 -0.0617099 28.5816 0.0203214ZM30.0183 18.2449C30.7708 19.7591 31.2406 21.386 31.4176 23.0403C31.6151 24.8758 31.4585 26.7488 30.9308 28.5569C29.8345 32.3201 27.3219 35.2835 24.1454 37.0267C20.9722 38.7698 17.1352 39.2996 13.3867 38.199C9.63824 37.0984 6.68643 34.576 4.95007 31.387C3.21371 28.2015 2.68599 24.3494 3.78228 20.5862C4.87857 16.8231 7.39119 13.8597 10.5677 12.1165C13.5944 10.4554 17.2203 9.89483 20.7986 10.8006L21.391 8.76348C17.251 7.69708 13.0531 8.33624 9.55313 10.2571C5.90337 12.2669 3.01624 15.6678 1.75653 19.9915C0.49682 24.3152 1.10284 28.7449 3.10136 32.409C5.09987 36.0696 8.48748 38.9681 12.7943 40.2327C17.1046 41.4974 21.5136 40.889 25.1633 38.886C28.8097 36.8831 31.6968 33.4788 32.9565 29.1551C33.5626 27.0804 33.743 24.9236 33.5149 22.8113C33.3072 20.8802 32.7557 18.9866 31.8705 17.2264L30.0183 18.2449ZM29.0514 18.7747L17.6255 25.0569C17.5608 25.0911 17.4893 25.115 17.4178 25.1253H17.411H17.4042H17.3974H17.3906H17.3838H17.377H17.3702H17.3633H17.3565H17.3497H17.3429H17.3361H17.3293H17.3225H17.3157H17.3089H17.3021C17.2714 25.1219 17.2374 25.115 17.2067 25.1048C16.9139 25.0193 16.7471 24.7151 16.8322 24.4212L20.4922 11.8636C17.2067 11.0467 13.877 11.5628 11.0988 13.0906C8.17085 14.7005 5.8557 17.428 4.84453 20.8973C3.83335 24.3699 4.32022 27.9212 5.92039 30.8641C7.52397 33.8035 10.2409 36.1277 13.6966 37.1429C17.1557 38.158 20.6965 37.6692 23.6245 36.0628C26.5524 34.4529 28.8676 31.7254 29.8787 28.2562C30.3656 26.5916 30.5086 24.8587 30.3282 23.1634C30.1613 21.6458 29.7324 20.1624 29.0514 18.7747ZM30.0898 6.32306C31.2304 6.32306 32.1564 7.25274 32.1564 8.39776C32.1564 9.54278 31.2304 10.4725 30.0898 10.4725C28.9493 10.4725 28.0232 9.54278 28.0232 8.39776C28.0232 7.25274 28.9493 6.32306 30.0898 6.32306ZM19.1269 31.657L21.8813 28.3416L24.2918 31.6912L19.1269 31.657ZM13.4719 34.5897C13.2029 34.6375 12.9475 34.4598 12.8999 34.1898C12.8522 33.9197 13.0293 33.6634 13.2982 33.6155C13.8123 33.5233 14.2549 33.4891 14.6703 33.5848C15.1197 33.6873 15.5078 33.93 15.8653 34.3812C15.8789 34.3983 15.8925 34.4119 15.9062 34.4256C16.0219 34.535 16.2126 34.5452 16.4135 34.5008C16.6858 34.4427 16.9582 34.2923 17.1625 34.1316C17.2203 34.0872 17.2714 34.0394 17.3089 33.9983C18.0341 33.2327 18.9567 33.6702 19.7262 34.0394C19.9815 34.1624 20.0666 34.5589 20.1347 34.4119C20.1381 34.4017 20.1449 34.3914 20.1483 34.3812C20.2232 34.1522 20.4547 34.0052 20.6965 34.0462C20.9654 34.0906 21.1493 34.3436 21.105 34.617C21.0778 34.7947 21.0369 34.8768 20.9757 34.9349C20.6182 35.5706 20.0121 35.2801 19.304 34.9417C18.8273 34.7127 18.2554 34.4427 18.0238 34.6888C17.9523 34.7674 17.8672 34.8426 17.7753 34.9144C17.4689 35.157 17.0467 35.386 16.6211 35.4783C16.1241 35.5877 15.6168 35.5262 15.2218 35.1502C15.1742 35.1058 15.1299 35.0579 15.0891 35.0032C14.8848 34.7435 14.6771 34.6102 14.4456 34.5555C14.1868 34.4905 13.8634 34.5179 13.4719 34.5897ZM14.2073 26.513C14.18 26.2396 14.3741 25.9969 14.6464 25.9661C14.9188 25.9388 15.1605 26.1336 15.1912 26.407C15.2933 27.347 15.1946 28.1775 14.8984 28.8919C14.5954 29.6233 14.0915 30.2249 13.3833 30.6932C13.1552 30.8436 12.8488 30.782 12.699 30.553C12.5492 30.324 12.6105 30.0164 12.8386 29.866C13.3765 29.5071 13.7612 29.056 13.986 28.5091C14.2141 27.952 14.289 27.2855 14.2073 26.513ZM10.2375 21.4988C9.96849 21.5467 9.71314 21.369 9.66208 21.1024C9.61441 20.8323 9.79145 20.576 10.0604 20.5247C10.3464 20.47 10.6324 20.3777 10.898 20.2889C11.7832 19.9949 12.4913 19.7625 13.2948 20.6307C13.5127 20.8665 13.8634 20.8768 14.2549 20.8836C14.5511 20.8904 14.8678 20.8973 15.2048 20.9725C15.4704 21.0306 15.6406 21.2938 15.5827 21.5638C15.5248 21.8304 15.2627 22.0013 14.9937 21.9432C14.735 21.8851 14.4762 21.8817 14.2345 21.8748C13.6183 21.8611 13.0701 21.8475 12.5696 21.3074C12.1985 20.9041 11.7593 21.0511 11.2078 21.2322C10.9218 21.3279 10.6086 21.4305 10.2375 21.4988ZM11.2316 17.2093L13.86 13.4017L16.6007 17.3221L11.2316 17.2093ZM9.12074 24.0589C10.2613 24.0589 11.1873 24.9886 11.1873 26.1336C11.1873 27.2786 10.2613 28.2083 9.12074 28.2083C7.98019 28.2083 7.05413 27.2786 7.05413 26.1336C7.05413 24.9886 7.98019 24.0589 9.12074 24.0589ZM27.4036 23.6487C27.1176 23.365 26.7261 23.1873 26.2937 23.1873C25.8613 23.1873 25.4664 23.365 25.1838 23.6487C24.8978 23.9359 24.7241 24.3289 24.7241 24.763C24.7241 25.1971 24.9012 25.5936 25.1838 25.8773C25.4664 26.1644 25.8613 26.3387 26.2937 26.3387C26.7261 26.3387 27.121 26.1609 27.4036 25.8773C27.6896 25.5936 27.8632 25.1971 27.8632 24.763C27.8632 24.3289 27.6862 23.9359 27.4036 23.6487Z" fill="#FFE8C8"/>
</g>
<defs>
<clipPath id="clip0_235_5990">
<rect width="39" height="42" fill="white"/>
</clipPath>
</defs>
</svg>
