<svg width="45" height="45" viewBox="0 0 45 45" fill="none" xmlns="http://www.w3.org/2000/svg">
<g clip-path="url(#clip0_235_5989)">
<path fill-rule="evenodd" clip-rule="evenodd" d="M39.9161 17.2735C42.7298 17.2518 45.0059 19.5189 45 22.3386C44.9934 25.1575 42.7074 27.4602 39.8941 27.4822L27.5548 27.5684L27.4688 39.9441C27.4457 42.7395 25.1476 45.0033 22.3365 45C19.5246 44.9963 17.265 42.7263 17.2881 39.9301L17.3734 27.64L5.08359 27.7262C2.27061 27.7482 -0.00584833 25.4807 1.12867e-05 22.6614C0.00660335 19.8425 2.29295 17.5398 5.1063 17.5182L17.4452 17.4316L17.5316 5.05594C17.555 2.2605 19.8527 -0.00329852 22.6639 3.60795e-06C25.4758 0.00330574 27.7354 2.27371 27.712 5.06988L27.6266 17.36L39.9161 17.2735Z" fill="black"/>
</g>
<defs>
<clipPath id="clip0_235_5989">
<rect width="45" height="45" fill="white"/>
</clipPath>
</defs>
</svg>  
