<svg width="42" height="41" viewBox="0 0 42 41" fill="none" xmlns="http://www.w3.org/2000/svg">
<g clip-path="url(#clip0_235_5986)">
<path d="M17.0859 0H17.0914V0.00239568C21.8078 0.00376464 26.0786 1.91928 29.1692 5.0145C32.2546 8.10527 34.166 12.3778 34.169 17.0966H34.1714V17.1079V17.1216H34.169C34.1673 19.0234 33.8556 20.8537 33.2824 22.5605C33.1864 22.8469 33.0859 23.1221 32.9826 23.3849V23.3873C32.4884 24.6399 31.8496 25.8241 31.0867 26.9148L41.0269 35.8606L41.0331 35.8661L41.0867 35.916L41.0905 35.9198C41.6517 36.4547 41.9573 37.171 41.9959 37.8979C42.0335 38.6166 41.8103 39.3518 41.3195 39.9414L41.3157 39.9469L41.2559 40.0164L41.2439 40.0284L41.194 40.0831L41.1886 40.0903C40.6537 40.6523 39.9396 40.9576 39.213 40.9959C38.4962 41.0339 37.7613 40.8111 37.1721 40.3189L37.167 40.3152L37.0972 40.2553L37.0873 40.2471L26.9205 31.0976C26.6197 31.3098 26.3128 31.5114 26.0021 31.7017C25.5806 31.9601 25.1442 32.2034 24.6988 32.4255C22.4091 33.5693 19.8216 34.2127 17.0862 34.2127V34.2151H17.0808V34.2127C12.3643 34.2113 8.09279 32.2958 5.00224 29.2006C1.91579 26.1098 0.00546879 21.8366 0.0023926 17.1192H0V17.1079V17.1024H0.0023926C0.0037598 12.3798 1.91681 8.10287 5.00805 5.00834C8.09484 1.91928 12.3619 0.00547584 17.0746 0.00239568V0H17.0859ZM17.0914 3.83651V3.8389H17.0859H17.0746V3.83651C13.4221 3.8389 10.1115 5.32525 7.71476 7.72401C5.3184 10.1228 3.8326 13.4411 3.83157 17.1028H3.83397V17.1082V17.1195H3.83157C3.83397 20.7767 5.31738 24.0899 7.71408 26.4904C10.1098 28.8902 13.4238 30.3779 17.0804 30.3786V30.3762H17.0859H17.0972V30.3786C20.7496 30.3762 24.0589 28.8905 26.4563 26.4911C28.8527 24.0923 30.3385 20.775 30.3392 17.1137H30.3371V17.1082V17.0969H30.3392C30.3371 13.4398 28.8523 10.1248 26.457 7.72504C24.0613 5.32525 20.7483 3.83754 17.0914 3.83651Z" fill="#616161"/>
</g>
<defs>
<clipPath id="clip0_235_5986">
<rect width="42" height="41" fill="white"/>
</clipPath>
</defs>
</svg>
