<svg width="45" height="52" viewBox="0 0 45 52" fill="none" xmlns="http://www.w3.org/2000/svg">
<g clip-path="url(#clip0_235_5987)">
<path fill-rule="evenodd" clip-rule="evenodd" d="M4.77993 15.7253H40.5026C40.7896 15.7139 41.077 15.7367 41.3585 15.793C41.8238 15.8942 42.2509 16.123 42.5909 16.4531C42.9858 16.8278 43.2344 17.3284 43.2927 17.8665C43.3035 18.07 43.2949 18.274 43.267 18.4759L40.2245 49.6429V49.6979V49.8164C40.2044 49.9451 40.1758 50.0723 40.1389 50.1973V50.2227C39.9775 50.7143 39.6655 51.1442 39.2462 51.4528C38.8268 51.7614 38.3208 51.9334 37.7982 51.945H7.41164C7.23103 51.9364 7.05178 51.9094 6.87674 51.8646C6.70472 51.8137 6.5384 51.7457 6.38035 51.6615C6.00734 51.4493 5.69233 51.1503 5.46265 50.7904C5.23297 50.4305 5.09557 50.0206 5.06236 49.5964L2.06693 18.4971C2.03274 18.2645 2.02414 18.029 2.04125 17.7946C2.10112 17.2639 2.34806 16.771 2.73876 16.4023C3.09278 16.062 3.53849 15.8299 4.02252 15.7337C4.27533 15.69 4.53195 15.6716 4.78849 15.6787L4.77993 15.7253ZM2.41782 3.72396H15.8844V2.53906C15.8823 2.50101 15.8823 2.46286 15.8844 2.4248C15.9114 1.787 16.1803 1.18265 16.6376 0.732096C17.1176 0.263543 17.7647 0.000567585 18.4391 0L26.7279 0H26.8563C27.5147 0.0325981 28.1353 0.314429 28.5894 0.787109C29.0434 1.25979 29.2963 1.88709 29.2954 2.53906V3.72396H42.9889H43.1557C43.6404 3.76316 44.0943 3.97466 44.4333 4.31932C44.7724 4.66399 44.9738 5.11847 45.0001 5.59863C45.0001 5.6748 45.0001 5.73405 45.0001 5.81022V9.98275C45.0001 10.2734 44.8833 10.5522 44.6755 10.7578C44.4676 10.9633 44.1857 11.0788 43.8918 11.0788H1.10839C0.816656 11.0788 0.53668 10.9651 0.329197 10.7623C0.121713 10.5595 0.00345518 10.2839 7.60551e-05 9.99544V5.72559C-0.00432833 5.68197 -0.00432833 5.63802 7.60551e-05 5.5944C0.0293933 5.14879 0.208865 4.72574 0.509827 4.39283C0.810789 4.05992 1.21588 3.83634 1.6604 3.75781C1.91144 3.72524 2.16483 3.71392 2.41782 3.72396ZM20.4332 26.0254C20.4849 25.5284 20.7211 25.068 21.0962 24.7333C21.4712 24.3985 21.9585 24.2132 22.4637 24.2132C22.9689 24.2132 23.4562 24.3985 23.8313 24.7333C24.2063 25.068 24.4425 25.5284 24.4942 26.0254V41.6829C24.4425 42.1799 24.2063 42.6403 23.8313 42.9751C23.4562 43.3098 22.9689 43.4951 22.4637 43.4951C21.9585 43.4951 21.4712 43.3098 21.0962 42.9751C20.7211 42.6403 20.4849 42.1799 20.4332 41.6829V26.0254ZM30.5878 25.9408C30.6439 25.4335 30.9 24.9686 31.3006 24.647C31.7011 24.3253 32.2138 24.1728 32.7273 24.2227C32.9796 24.2204 33.2298 24.2676 33.4636 24.3614C33.6974 24.4552 33.9101 24.5938 34.0895 24.7692C34.2688 24.9446 34.4114 25.1534 34.5088 25.3835C34.6063 25.6136 34.6567 25.8605 34.6573 26.11L33.8014 41.7676C33.7464 42.2753 33.4905 42.7409 33.0897 43.0627C32.6889 43.3846 32.1756 43.5366 31.6618 43.4857C31.4096 43.4879 31.1593 43.4408 30.9256 43.347C30.6918 43.2532 30.4791 43.1146 30.2997 42.9392C30.1203 42.7637 29.9778 42.5549 29.8804 42.3248C29.7829 42.0947 29.7325 41.8478 29.7319 41.5983L30.5878 25.9408ZM10.6981 26.11C10.698 25.8607 10.748 25.6139 10.845 25.3838C10.9419 25.1537 11.0841 24.9449 11.2631 24.7694C11.4421 24.594 11.6545 24.4553 11.8881 24.3614C12.1216 24.2676 12.3716 24.2204 12.6237 24.2227C13.1372 24.1728 13.6499 24.3253 14.0505 24.647C14.451 24.9686 14.7072 25.4335 14.7633 25.9408L15.6191 41.5983C15.6186 41.8478 15.5681 42.0947 15.4707 42.3248C15.3732 42.5549 15.2307 42.7637 15.0513 42.9392C14.872 43.1146 14.6593 43.2532 14.4255 43.347C14.1917 43.4408 13.9415 43.4879 13.6892 43.4857C13.1755 43.5366 12.6622 43.3846 12.2613 43.0627C11.8605 42.7409 11.6047 42.2753 11.5496 41.7676L10.6938 26.11H10.6981Z" fill="black"/>
</g>
<defs>
<clipPath id="clip0_235_5987">
<rect width="45" height="52" fill="white"/>
</clipPath>
</defs>
</svg>
